/* XPM */
static char *_b2308929ff5467fab5429bedcc57ea1DrbnIyDY6bKIAaOv[] = {
/* columns rows colors chars-per-pixel */
"38 38 131 2 ",
"   c None",
".  c #423756",
"X  c #453B57",
"o  c #44375A",
"O  c #463A5C",
"+  c #493D5D",
"@  c #473762",
"#  c #4B3D63",
"$  c #4D3E6A",
"%  c #513F6A",
"&  c #4B425C",
"*  c #51475F",
"=  c #62524C",
"-  c #6B5952",
";  c #7D664B",
":  c #4E4165",
">  c #4F4861",
",  c #4F4269",
"<  c #514467",
"1  c #524966",
"2  c #52446C",
"3  c #55496D",
"4  c #584B6C",
"5  c #5C516E",
"6  c #554672",
"7  c #584773",
"8  c #574972",
"9  c #5A4B74",
"0  c #5D4D7A",
"q  c #5D5175",
"w  c #5F517B",
"e  c #625160",
"r  c #614E7D",
"t  c #625374",
"y  c #62527E",
"u  c #67587F",
"i  c #6C5C7B",
"p  c #866E4A",
"a  c #85714B",
"s  c #917847",
"d  c #9A7F46",
"f  c #917449",
"g  c #94794C",
"h  c #9D7D4C",
"j  c #846E52",
"k  c #957F54",
"l  c #9A7E52",
"z  c #9E834D",
"x  c #9D8252",
"c  c #A2844E",
"v  c #A9864E",
"b  c #AF8F4F",
"n  c #A28453",
"m  c #A68B53",
"M  c #AA8C53",
"N  c #B39352",
"B  c #B99650",
"V  c #B49258",
"C  c #634F81",
"Z  c #655483",
"A  c #695685",
"S  c #665984",
"D  c #6B5A86",
"F  c #67558A",
"G  c #695689",
"H  c #6C5B8B",
"J  c #6E5B89",
"K  c #6C5C89",
"L  c #6F5C8B",
"P  c #6C588D",
"I  c #6C5B8C",
"U  c #6D5B8C",
"Y  c #6E598E",
"T  c #6D5A8E",
"R  c #6E5A8E",
"E  c #6F5A8E",
"W  c #6F5D8C",
"Q  c #6F5C8E",
"!  c #6F5D8F",
"~  c #6E5F8E",
"^  c #6F5F8F",
"/  c #6C5B8B",
"(  c #725E89",
")  c #705D8F",
"_  c #705F8F",
"`  c #705D8D",
"'  c #6F5B92",
"]  c #6F5E90",
"[  c #705C91",
"{  c #725D91",
"}  c #725E91",
"|  c #705E92",
" . c #715D95",
".. c #735F94",
"X. c #745F95",
"o. c #715E92",
"O. c #73618F",
"+. c #70628E",
"@. c #74638E",
"#. c #72618F",
"$. c #746292",
"%. c #746393",
"&. c #766293",
"*. c #736195",
"=. c #746195",
"-. c #756195",
";. c #756196",
":. c #756297",
">. c #766396",
",. c #746294",
"<. c #7B6695",
"1. c #75649A",
"2. c #766399",
"3. c #7C639A",
"4. c #786598",
"5. c #7B659C",
"6. c #7A679C",
"7. c #7B679D",
"8. c #7E679D",
"9. c #7A669D",
"0. c #77689A",
"q. c #7E6A9D",
"w. c #7D689E",
"e. c #7866A0",
"r. c #7B68A0",
"t. c #7F6AA2",
"y. c #8169A2",
"u. c #826BA3",
"i. c #806DA4",
"p. c #866EAA",
"a. c #8872AD",
/* pixels */
"                                                      z g f l               ",
"                                                z m M m m m V m             ",
"                                          M M x x           M N x           ",
"          x                     n m b N b M x                 M x           ",
"          d m n n c h z z x g n c h v B c                       M           ",
"              p g z h h g             n g                     n V           ",
"                                      h g                 a x M n           ",
"                                    = g j                                   ",
"                              S 9 t e ; - @.+.q                             ",
"                        * 1 ` X.A y.<.i D p.$.3 3 5 >                       ",
"                    X 1 9 7 0 9 A 3.u.r.1.} 0 + 4 9 3 w                     ",
"                  1 + : r E >.0 7 7 2 9 0 ^ 6.@.9 y 6 y u                   ",
"                A 9 , : y 5.5.>.A Y 7 9 y %.D y.Z 7 2 3 y S                 ",
"              w L H 8 # y X.:.P G G  . .6 0 } ) r Z Z 2 X 9 S               ",
"            ( $.Z G 3 8 0 ) C $ C { G Y 7 0 E 9 6 A Z Z 3 , 9 1             ",
"            %.:.Z 2 9 >.y , 6 9 7 C F C 0 S < 2 r r 0 S H # , 9 &           ",
"          X , 0 6 , 0 P 9 6 ) A ` r O % P T Z +.S *.G , 2 O , w q           ",
"          @ : , 0 9 6 w $ A D A H X.7 r C 0 w *.} i.' t A 1 @ # A t         ",
"        1 , 9 : 1 2 6 0 # r r ` u.2.r @.T , 6 *.^ K 3 y H 9 3 $ Z y         ",
"        1 , $ : 7 % 6 6 @ 6 C 0 S 7 r ` G w 6 C 1.0.S 2 6 2 2 9 0 +.        ",
"        & , : , 6 2 O , # @ Z H 6 y 8 , w 0 0 , 2 9 w 2 w r < 2 0 8         ",
"        1 9 6 9 } Z $ Z 9 o @ 0 9 D Z , 2 9 2 8 >.y 9 y 9 9 9 r 2 2         ",
"        1 2 6 { { S 0 6 , 2 0 0 2 6 y 9 Z 1.Z 9 $.T 0 A r 9 # 9 2 X         ",
"        O # Z { X.E S $ $ # 6 S y $ 9 , C ] y 8 w 9 Z A G r : : < : 1       ",
"        & & Z ] X.u.Z r 0 # y S 0 9 0 9 2 E } 0 2 , 9  .T , # 2 3 : q       ",
"          , 6 :.` r 2 G 2 2 ^ S S y 2 2 E ) G *.8 w 8 6 2 : : : 4 4         ",
"          2 $ ' a.y 2 2 + 2 *.K ] Z O % :.G <.t.S C G : 9 $.w 9 y 4         ",
"          0 2 F e.0 2 9 2 2 Z $.F 2 9 7 X.E r.r.9 O 6 , < 9 % , 9           ",
"          2 2 2 9 2 < < 9 y 2 : : 0 G 0 C e.$.| w , P P 8 # r G y           ",
"            8 : 2 r 9 9 +.y q : : 3 + + @ F 5.t.:., 9 w 2 S G G <.          ",
"            3 : 0 6.@.G q S w 8 y # q 9 6 Z G S 0 , 2 @ # G G )             ",
"            & 2 X.G S D 0 S 9 2 0 2 0 6 6 X.>.E 0 0 0 2 O 7 S D             ",
"              8 P $.8.*.9 1 O 0 S Z 7 O 9 7 A A r 4 4 2 2 2 2               ",
"                9 Z 3.S @ , , P y H ) < 0 9 ` D A r . O : 3                 ",
"                  : 2 6 : 9 8 S C r.5.% 2 0 %.D } S X : &                   ",
"                      : : 2 # Z C F C $ G S A >.) 9 + 1                     ",
"                            X 9 >.G C 6 r S < 0 C t                         ",
"                                              q w                           "
};
