/* XPM */
static char *_632393904698[] = {
/* columns rows colors chars-per-pixel */
"32 40 78 1 ",
"  c #393431",
". c #4A0408",
"X c #731008",
"o c #4A2818",
"O c #623808",
"+ c #413831",
"@ c #622829",
"# c #395D18",
"$ c #317908",
"% c #397518",
"& c #397929",
"* c #627508",
"= c #311452",
"- c #391C52",
"; c #732041",
": c #39444A",
"> c #4A4841",
", c #835D18",
"< c #AC5D18",
"1 c #947918",
"2 c #A44429",
"3 c #8B7D39",
"4 c #C55D10",
"5 c #E64408",
"6 c #E65D08",
"7 c #CD7110",
"8 c #F67908",
"9 c #E65D31",
"0 c #F65D39",
"q c #C56139",
"w c #F67D29",
"e c #9C6D73",
"r c #CD4041",
"t c #D5717B",
"y c #398D18",
"u c #5A9D08",
"i c #529D18",
"p c #628D00",
"a c #6A8D29",
"s c #73B629",
"d c #9C8518",
"f c #8B9110",
"g c #8BAE18",
"h c #B4BE08",
"j c #B4AE10",
"k c #948D29",
"l c #B4AE29",
"z c #D58108",
"x c #D59500",
"c c #DEAA08",
"v c #F6AE08",
"b c #CD8539",
"n c #CD9131",
"m c #F69129",
"M c #F6AA39",
"N c #9CC610",
"B c #D5CE18",
"V c #F6DA18",
"C c #E6F208",
"Z c #9C9141",
"A c #BDA54A",
"S c #C59541",
"D c #E6A55A",
"F c #DE8173",
"G c #C5B26A",
"H c #E6B262",
"J c #F6D24A",
"K c #F6E641",
"L c #F6F65A",
"P c #F6CE73",
"I c #F66183",
"U c #F69994",
"Y c #BDC683",
"T c #D5CA8B",
"R c #F6DE83",
"E c #EEE6C5",
"W c #F6FFF6",
"Q c None",
/* pixels */
"QQQQQQQQQQQQQQQQQQQQQQQQQQQQQQQQ",
"QQQQQQQQQQQQQQQQQQQQQQQQQQQQQQQQ",
"QQQQQQQQQQQQQQQQQQQQQQQQQQQQQQQQ",
"QQQQQQQQQQQQQQQQQQQ=====QQQQQQQQ",
"QQQQQQQQQQQQQQ======>:-==QQQQQQQ",
"QQQQQQQQQQQQ===kTWEAoSe.===QQQQQ",
"QQQQQQQQQQ===WLWLRRHHHMUF@==QQQQ",
"QQQQQQQQQ==LLRRJJPPPHMMmm9<=QQQQ",
"QQQQQQQQ==LLKRJJJPPHMDmmm60X=QQQ",
"QQQQQQQ==LKKJJJPPPHHMDmmmI5t==QQ",
"QQQQQQ==LLKKJJPPPPHHMDmmmI99X=QQ",
"QQQQQQ=YKKKJJJPPPHHHMmmmmw99r=QQ",
"QQQQQ==LKKKVJJPPPHHMDmmmm0569=QQ",
"QQQQQ=+KKKVVJPPHHHMMDmmmm9559=QQ",
"QQQQ==LKKVVJJPHHMMMMmmmmw6659=QQ",
"QQQQ=oLKKVJJJPHHMMMMmmmww666q=QQ",
"QQQQ=GVVVJJJPHHMMMMmmmmmw6664=QQ",
"QQQQ=KKVVJJJPHHMMMMmmmmmw665r=QQ",
"QQQ==LVVVJJPPHMMMMMmmmmm66654=QQ",
"QQQ=oCVVJJJPPMMMMMMmmmmw6656;=QQ",
"QQQ=ZKVVJJJPMMMMMMmmmmm66666.QQQ",
"QQQ=BVVVVJPPMMMMMMmmmm866669=QQQ",
"QQQ=KVVVVJJPvMMMMMmmmm66666<=QQQ",
"QQQ=LVVVVJJPvMvvvvmmm866666X=QQQ",
"QQQ=LVVJJJJJvvvvvvvm8666687.=QQQ",
"QQQ=KVJJJJJJvvvvvvvm8666662==QQQ",
"QQQ=KJJJJJJJvvvvvvvm888886.=QQQQ",
"QQQ=BJBJBJJvvvvvvvm888888b==QQQQ",
"QQQ=hBBBBBvvvvvvvmm88888m.=QQQQQ",
"QQQ-hBBBBBvvvvvvmm888888,==QQQQQ",
"QQQ-hjBcccvvvvmmm888888b==QQQQQQ",
"QQQ=NghBHHHvvxmmm88888m.=QQQQQQQ",
"QQQ=sgflhGcxxzzzzzz87m.==QQQQQQQ",
"QQQ=suuffkdZSzzzzzz7n===QQQQQQQQ",
"QQQ= iyippaa111111d1==QQQQQQQQQQ",
"QQQ==iyyypp****3*dO==QQQQQQQQQQQ",
"QQQQ==yy$$$$$&** ===QQQQQQQQQQQQ",
"QQQQQ==%y$$$&#====QQQQQQQQQQQQQQ",
"QQQQQQ=========QQQQQQQQQQQQQQQQQ",
"QQQQQQQQQQQQQQQQQQQQQQQQQQQQQQQQ"
};
