/* XPM */
static char *_631723078243[] = {
/* columns rows colors chars-per-pixel */
"22 38 85 1 ",
"  c #254637",
". c #2F4439",
"X c #274E3D",
"o c #2C4C3D",
"O c #354335",
"+ c #3A473F",
"@ c #324C3D",
"# c #33503F",
"$ c #324F40",
"% c #3B4D44",
"& c #2E5543",
"* c #335344",
"= c #3C5345",
"- c #335947",
"; c #375749",
": c #3B564A",
"> c #345C4B",
", c #3B5A4A",
"< c #3C5F53",
"1 c #32604C",
"2 c #376653",
"3 c #3C6353",
"4 c #3D6B5B",
"5 c #445B45",
"6 c #495A47",
"7 c #43574B",
"8 c #445B4B",
"9 c #4B5C4C",
"0 c #4F5F50",
"q c #515E50",
"w c #52614D",
"e c #446253",
"r c #4D6054",
"t c #416B5A",
"y c #4B685E",
"u c #546351",
"i c #5A6755",
"p c #546558",
"a c #476F60",
"s c #457564",
"d c #4A7566",
"f c #4E7768",
"g c #467C6A",
"h c #4B7C6B",
"j c #547B6D",
"k c #4B806F",
"l c #56806F",
"z c #4E8573",
"x c #528473",
"c c #538976",
"v c #598876",
"b c #558B79",
"n c #5B8C7C",
"m c #56907D",
"M c #5D917F",
"N c #638479",
"B c #628C7E",
"V c #5D9382",
"C c #648F81",
"Z c #6A8D81",
"A c #629484",
"S c #6A9486",
"D c #639886",
"F c #6B9688",
"G c #669989",
"H c #6C9B8C",
"J c #70978A",
"K c #729C8D",
"L c #759F91",
"P c #7A9E92",
"I c #6FA091",
"U c #75A293",
"Y c #7CA295",
"T c #7AA898",
"R c #849B93",
"E c #82A296",
"W c #85A499",
"Q c #8EA79E",
"! c #84AA9D",
"~ c #88A89C",
"^ c #93A59F",
"/ c #8CABA0",
"( c #94A6A0",
") c #95AFA6",
"_ c None",
/* pixels */
"______________9OO_____",
"______________i6______",
"______________w_______",
"______________i6___%__",
"___________,=__r6_r=__",
"___________7,u_i68_8=_",
"__________%@__p59___*o",
"___________*___88_____",
"_______%9+_o__788__.o,",
"_______________8,___=_",
"______;*______e, ;____",
"______@8u79qww7_______",
"_____7=__0__869_______",
"_____________5________",
"____________8w________",
"____________8u________",
"__________Kv3,f_______",
"________NKTGkxx_______",
"________PDKUDHFK______",
"_______SKPHVMH~Y______",
"______SxVDzccmMB______",
"_____~YnAFHLKHDn______",
"____W//KGHWKYWHVt_____",
"___J~EPLnbFVbMMg>_____",
"_WZLUHPFbkghggzgs_____",
"(/WPnn/YTbhsgMUSbh____",
"^/)WHFKDKhzADL!KVh____",
"WJYKKYCg24xGJQZbVd____",
"PCnjGHbkggxHD!A4Ase___",
"ZSxhDVzznkbDnIdsn,;___",
"~KcAVnzznAVnHSsh2X*___",
"RIDDDUHTSKHBNfhft>o___",
"_vcGbCLZBZSKSAL3-->___",
"_jzCcznBBFLHnzx4&$8___",
"__y3zVbbVHUCSVt&o=____",
"___<VIHDDjs4js> ______",
"____NHHnx>&-&oo_______",
"_____jtt3*;_,_________"
};
