/* XPM */
static char *fdc36aa0b6c244d7ec4a6cef1d4086b060HzdvHD0JSfIYWO[] = {
/* columns rows colors chars-per-pixel */
"64 64 208 2 ",
"   c None",
".  c #2C1F3E",
"X  c #32263C",
"o  c #413629",
"O  c #4B3E39",
"+  c #534329",
"@  c #4E4A3B",
"#  c #5B4B36",
"$  c #665738",
"%  c #755F3B",
"&  c #74633B",
"*  c #7B643E",
"=  c #2F2446",
"-  c #322444",
";  c #342A44",
":  c #392D46",
">  c #34264B",
",  c #362B4C",
"<  c #3A2D4C",
"1  c #3B3546",
"2  c #3C324E",
"3  c #3B3749",
"4  c #372953",
"5  c #3B2D53",
"6  c #3D2D59",
"7  c #3E3254",
"8  c #3F3953",
"9  c #3E325B",
"0  c #41364E",
"q  c #40384C",
"w  c #402F56",
"e  c #412F5D",
"r  c #413455",
"t  c #443A55",
"y  c #493C55",
"u  c #43345C",
"i  c #463A5C",
"p  c #493C5D",
"a  c #48365C",
"s  c #503F5F",
"d  c #443462",
"f  c #493663",
"g  c #463962",
"h  c #4B3C64",
"j  c #4A376A",
"k  c #4C3D6A",
"l  c #503E66",
"z  c #513E6B",
"x  c #4E3A71",
"c  c #533F74",
"v  c #51424B",
"b  c #55484C",
"n  c #4A4153",
"m  c #4C425D",
"M  c #4B4857",
"N  c #50425E",
"B  c #524659",
"V  c #6B5A49",
"C  c #745D48",
"Z  c #765E40",
"A  c #746443",
"S  c #7A6B42",
"D  c #7D6C49",
"F  c #78644B",
"G  c #7D7047",
"H  c #4D4163",
"J  c #4E416A",
"K  c #514365",
"L  c #524965",
"P  c #594B65",
"I  c #53446C",
"U  c #554A6C",
"Y  c #5A4C6D",
"T  c #58466D",
"R  c #5B536B",
"E  c #544473",
"W  c #594675",
"Q  c #574973",
"!  c #5B4C74",
"~  c #56467A",
"^  c #59467A",
"/  c #5C4C7B",
"(  c #57487B",
")  c #5D5174",
"_  c #5E517B",
"`  c #62596F",
"'  c #604E7C",
"]  c #615376",
"[  c #635B74",
"{  c #63547C",
"}  c #69577F",
"|  c #66597C",
" . c #695C79",
".. c #846D45",
"X. c #846D4B",
"o. c #896B4C",
"O. c #8E7444",
"+. c #82704D",
"@. c #8C734F",
"#. c #8C784C",
"$. c #897846",
"%. c #997D46",
"&. c #98744C",
"*. c #947A4E",
"=. c #9D7C4D",
"-. c #91764B",
";. c #876D5C",
":. c #8A7251",
">. c #867158",
",. c #9B7D53",
"<. c #AA883D",
"1. c #9C824B",
"2. c #978349",
"3. c #958353",
"4. c #9D8253",
"5. c #9C825A",
"6. c #A0824D",
"7. c #AB8D4F",
"8. c #A78B4C",
"9. c #AE914D",
"0. c #BC9E4E",
"q. c #B6944D",
"w. c #A28353",
"e. c #A98754",
"r. c #A48A53",
"t. c #AB8D54",
"y. c #A38759",
"u. c #A88D5A",
"i. c #B08D54",
"p. c #B18F5E",
"a. c #AD9953",
"s. c #AD935B",
"d. c #AE9452",
"f. c #B49354",
"g. c #BA9555",
"h. c #BC9C54",
"j. c #B5935A",
"k. c #B7995B",
"l. c #BC9A5B",
"z. c #BA945F",
"x. c #BCA052",
"c. c #9C8663",
"v. c #B89960",
"b. c #BFA164",
"n. c #C59E4E",
"m. c #C59D54",
"M. c #C79D55",
"N. c #C0A156",
"B. c #5E4D82",
"V. c #594680",
"C. c #5F5282",
"Z. c #624E82",
"A. c #654D88",
"S. c #645383",
"D. c #695585",
"F. c #665981",
"G. c #6B5B85",
"H. c #66548A",
"J. c #6A568B",
"K. c #6C5B8B",
"L. c #715D8D",
"P. c #705D87",
"I. c #6A5792",
"U. c #6E5C91",
"Y. c #725D94",
"T. c #70599D",
"R. c #6E6185",
"E. c #6E628A",
"W. c #6E688F",
"Q. c #72638D",
"!. c #76698E",
"~. c #77678B",
"^. c #746393",
"/. c #796694",
"(. c #766992",
"). c #7A6A94",
"_. c #76649A",
"`. c #7A669B",
"'. c #776A9D",
"]. c #7C6B9C",
"[. c #7F739B",
"{. c #7D7294",
"}. c #7C66A2",
"|. c #7D6BA2",
" X c #7F6DA9",
".X c #7F71A2",
"XX c #816E9E",
"oX c #82729D",
"OX c #826DA4",
"+X c #846DAB",
"@X c #8472A5",
"#X c #8975A5",
"$X c #8573AB",
"%X c #8A75AC",
"&X c #8C79AD",
"*X c #8778A6",
"=X c #917AAF",
"-X c #8673B0",
";X c #8B75B3",
":X c #8D79B3",
">X c #8D76BA",
",X c #8D79B9",
"<X c #927AB5",
"1X c #9175BB",
"2X c #917ABA",
"3X c #9076B5",
"4X c #8F77C0",
"5X c #927BC0",
/* pixels */
"                                                                                              A + # C                           ",
"                                                                                      +.3.s.g.l.f.7.z.u.+.                      ",
"                                                                                * 2.s.l.h.f.s.1.r.r.g.M.k.D                     ",
"                                                                          D 3.t.f.h.a.w.o.          @.z.h.v.F                   ",
"                                                                    $.3.f.0.b.5.F ;.                  *.h.x.c.                  ",
"                c.;.                                        O.1.u.f.0.h.k.r.@.                          #.h.y.o                 ",
"                7.f.y.X.                        $ @.=.e.j.v.M.n.M.n.j.@.                                  u.f.X.                ",
"                2.<.q.l.j.y.w.=.&.&.%.6.1.r.j.4.=.z.k.7.r.6.=.e.m.0...                                    5.N.r.                ",
"                F $ S y.,.4.f.g.f.q.9.d.t.e.w.#.X...S $       % f.h.*                                     >.M.t.                ",
"                          # A D * &                             *.l.Z                         @           c.m.u.                ",
"                                                                ..l.&                         V >.X.o.X.4.m.m.:.                ",
"                                                                -.z.&                           # +.r.a.a.r.+.                  ",
"                                                              O O.j.C                                 $                         ",
"                                                          Y ` b O.7.C [ {.[                                                     ",
"                                                  ) F.h T D.R y o.-.# s ;X*XJ U |                                               ",
"                                            0 U }.>X`.{ ' XXXXT B v y L.1X2XH.E.G.7 [ m                                         ",
"                                        [ n R Q }.OXD.Z.Y.<X3X%X'.'.@X>X3X&XY p < Q {.m [ 8                                     ",
"                                  3 H J Y u I S.f h T D.XX=X3X1X,X,X-X$X].! , 1 B ^.I H t I W.                                  ",
"                                g H t H L.Y.d Z.' l a P.W ' ' D.S.S.Q h j / K.U t k I _.{ E @Xm n                               ",
"                              y D.L X H G.W L.&X<X].w p c j a e k ] p K.OX:X2X&X{ k E.H.h 9 ].K.H B                             ",
"                            U u } K ; T f Z.%X#X`.#XK.l OX`.{ c Y U F.<X%XL.`.<XOXf { I p p l ).*X*X[                           ",
"                          ] #XL.> ] ! I f XX+X^ J.&XXXf %XY.l ' / g I *XW l l XX%Xh W / h ! { g Q H.H y                         ",
"                        g J OX;XI / G.r a OXY.J.:X;XD.k $X^ ' $X;XY.u Y / #X' K.@Xu ( B.^.E I y r h ^.R.                        ",
"                      ! OX{ I &XK.6 h 0 r XX`.^ Y./ 5 Z.=Xz J.3XU.I.k t F.2XY.Y.Z.W %X_.W ^.7 0 7 H (.W )                       ",
"                      /.].oXJ '.S.L F.E 9 S.&XW.B.S.E ~ 3XY.z ! c `.z Y E `.OXH.5 ! L._.c XXQ | k < _ C.) m                     ",
"                    F.&X/ Q I ^.g k { $XU.d G.{ g u 5 - } %XT.Y.OXL.f L.) r 7 - r k f 6 ' #X/ @X@Xr i g g t                     ",
"                  1 (.2X-X^.'.Q 4 L ).|.).! - 6 E H.H./ w l Y.T.A.j l J.(.U , R.oX(.`.A.f F.l ]._.r 7 J I.E.q                   ",
"                  ; p ! K.K.H u k u @XY./ U 9 H.@X|.Y.#XOXw : a w j OXJ.[.J K.$XW z D.%X^.5 p I r H 8 ( -XJ Y s                 ",
"                y p ) ; u J 5 ! F.f S./ { 2 ^ $X^.f l l &XY., s T l %X|.E.g *X_.Q #XW %X%Xp k W H y ; 9 I m K.(.[               ",
"                m 9 g 9 J W.^.E / I ^.).| 5 H.%XI D.XXp OX%Xl ' D.t k A.( 9 *X}.E %XOX1X;Xp K.#XL ) h i X ! J.(.P               ",
"              R p g C.! 9 U Q ) I 6 h k 9 5 B.OXp `.#X' %X>XE Z.OXF.Y.j u 7 W.>XE U.#XOX' , `.$X} K.Q _.- k I.h m               ",
"              m I J _ ) i 2 H H k / Q./ ] 9 V._.a Z.#X&X>X+Xf } P._.,XQ H 8 E -X].E H H r B J.#XG.I 8 ! u u ^.L.~.              ",
"              ) ) d ' G.h z ! z g k }.S.I r W J.{ d H.OX`./ 5 '.%X;XH.Q ].g 9 S.,X&X@X$X!.) k h h H h W ^.Q k @X*X              ",
"              L i ! 4 X t J.F.T Q 9 g , r > f B.).! i f u 7 u F.K.E E ^.{ ! K.9 ! @X;X$X'.J u k { E h I ! k ! E K.p             ",
"              7 i H ! P l F.u h ) i i H ! Q 6 ~ Z.@X).p Q /.F.i u g XXG.h D.T.h : < i 9 h U 7 J @X|.H u h i } ^.d 2             ",
"              H L h / h 5 j B.^ 9 = J G.{ u - 9 W J.OX! _ oXH.! K r h h I J 6 g W S.U 7 W.[.!.] g H ! I L.i U S.E L             ",
"              U ^.J ^.g E +X,X&X^.6 E @X@Xr K < 5 f W h / C.@XK.J u ! I Q ! R g $X,X:X! 5 E I ' | h (.u ].Z.p ! J 2             ",
"              R _ H 7 k OX+XS.E F.^.u k / , ] I / k u 4 L / / / ! E S._.;X/ _ h U.$X-XQ T /.L.W G./ 5 0 S.|.r r t i             ",
"              n H Q h I.#Xc D.).k /.E J S.g { E T.$X].Y.d g F.).I ! B.-X@X/ | I Q ! |.u ^.B.(.' / Y.r p h h Q h H U             ",
"              L 8 H J  XK.' =XL.k ].E 4 u 6 U m h I J } E.4 k L 5 J B.+X'.{ ).k Q ! ).u _.^ P.E J.Y.u I H 7 | y i g             ",
"              ; U 9 Q -XH.K.3X_.OX+Xd h I J u , Q ^._.J { J ~ U.U H I J ! ! I 4 F.S.( r K.'.I S.@XZ.h V.k ] { p 7 E.            ",
"              1 ) 8 J $X^.I %X2X,XG.e OX@XE i I *XS./ K.J K.d Y.|.9 6 H.OX;X$XD.w l / 6 g  X,X&XU.6 u H y | ! 5 9 R.            ",
"                m , 9 U.&X' W J.{ u ' OXS.H 8 )._.J @XU.k ).7 F.( u Y.;XL.W Y.&XQ ; Y } i u F.I 5 < p p , p U Y U R             ",
"                ) W.E g OX;XL.P : g Y.D.h r , oXK.Q [.E _ oX7 H 5 I %X`.l G.z OXOXi D.`.Q 6 u 6 | } u ] K K ! Y L [             ",
"                t h u 4 K.>X>X*Xk u l h h m ; _.$XU h / @X^.5 p < / >XD.' =X' OX;XW E -X:X^.I k '.K.U.Q ! } ).U M               ",
"                (.d _ g A.;X>X$Xj ] K ! 9 U i ~ :X&X#X%X].J 9 Y < W 3X} ' 3X$X;X,X! , I Q H t 2 Q.:X$XW ( ^ C.R.                ",
"                ^.! } g K.:X$XS.5 { H.Q ! I G.4 Z.OX&XT.I 7 g Q.! x +XXXl $X3X;X).9 : 8 9 i h 7 0 / u 2 r d Q ).                ",
"                H k D.5 E E j u U i u ] L h ) g < 0 < 7 6 E.Z.#X`.e L.3XD.c S.' J h 7 S. XU.$XH.y : , I W E u ,                 ",
"                  H J I u L W /.h [ r p Q F.F.].{ H U H { Q K.^.G.5 k }.,X].G.L.@X^.4 E $XF.Y.A.Y y Y.}.OX>X_.                  ",
"                    H E.H K | ! d k : I :X&XG.W ) g H ; { F.p ; 0 H 6 ( OX2X<X3X2X|.p Q E ! K.I a K._.E c Y.#X                  ",
"                    | h m r 9 H.+X*X^.E K.| k L | U H E K : 3 y m 7 k 9 g H.L.Y.+X X9 y h S.g t f +XF.G.K.T {.                  ",
"                    ) Q T > L.<XOX^.).@Xp K L.).I J E $XS.7 W ).D.e ! ^.H.T T z u E g J _ > < U d OXJ.Z.^.).R.                  ",
"                    U L u Z.;XU.k I h `.F.U |.U._ U C.].g p /.U.;Xl I OX4X>X>X%X`.7 ' I.B.Q h 7 6 C.^.E ].oX                    ",
"                      1 r `.OXI ].*XT H.).i E ^.J h 9 g i i u p E 5 5 A.XX~.! T S.Q.f G.~ F.K H 5 u H.G.U R                     ",
"                        g _.^.' =XY.( $XH.p U H , 4 H. X'.|.K.7 : H Q g 5 z Q.`.^ H.] < R._ ! H I W u | L                       ",
"                        g _ L.W :X%X;X&Xh I I t , B.:X| a l XXD., H  XK.d OXP.! ^.I /.i ) 9 ) i E /.r ;                         ",
"                          H } J K.3X&X' > t J I 8 _.].u (.D.J.%Xp t '.U W #XI XX^.l @Xt ; , 8 H h F.1                           ",
"                            i U u I c u t h _ G.9 ).K.u #XJ.OX3XI < u , ! #XT L.^ ' &XK 0 7 i m t 2                             ",
"                                3 y K.K.u ! D.{ 5 K.^.d `.:X1X$Xh 9 U.{ l #X~.W S.#X$Xp 2 h _ L M                               ",
"                                    d L u ) J i u ^ +Xx k `.}.c 4 u '.|.d ^.&X<X:X@XS.i i p [                                   ",
"                                          i i Y y f OXOXz e u z ' u D.:X' w ' L.A.j h R.3 3                                     ",
"                                                n > ' %X>XOX}.XXD.f W OXK.r l h E I.).U                                         ",
"                                                      Q | { I f       h   5 { G.^.G.H                                           ",
"                                                                                                                                "
};
