/* XPM */
static char *_2365_966dfa2983a578c82bba414d42b6fc54bd0d025c1571a95cd777133c216d204e[] = {
/* columns rows colors chars-per-pixel */
"96 96 12 1 ",
"  c #6E5967",
". c #926475",
"X c #AD707B",
"o c #D2727E",
"O c #EEC800",
"+ c #B98080",
"@ c #C39490",
"# c #E28989",
"$ c #EDA799",
"% c #FBCAAE",
"& c #FAEBCF",
"* c white",
/* pixels */
"************************************************************************************************",
"************************************************************************************************",
"************************************************************************************************",
"************************************************************************************************",
"************************************************************************************************",
"************************************************************************************************",
"************************************************************************************************",
"************************************************************************************************",
"************************************************************************************************",
"************************************************************************************************",
"************************************************************************************************",
"************************************************************************************************",
"************************************************************************************************",
"************************************************************************************************",
"************************************************************************************************",
"************************************************************************************************",
"************************************************************************************************",
"************************************************************************************************",
"************************************************************************************************",
"************************************************************************************************",
"************************************************************************************************",
"************************************************************************************************",
"************************************************************************************************",
"************************************************************************************************",
"**********************************                            **********************************",
"********************************  %$ $%%%&%&&%$ $%%%&%&&&%$ $%  ********************************",
"******************************  $%%% %%%%%%%%%% %%%%%%%%%%% %%%$  ******************************",
"***************************** $&&%%% %%%%%%%%%% %%%%%%%%%%% %%%&&$ *****************************",
"**************************** $&%%%%$ $%%%%%%%%$ $%%%%%%%%%$ $%%%%&$ ****************************",
"*************************** $&%%%$## ########## ########### ##$%%%&$ ***************************",
"*************************** %%%%$##o                        o##$%%%% ***************************",
"************************** $%%%$##   .XXXX..  O      ..XXX.   ##$%%%$ **************************",
"************************** %%%%##   .XXXXX..  O      ..XXXX.   ##%%%% **************************",
"************************* $%%%$#              O                 #$%%%$ *************************",
"************************* %%%%##  .XXXXXXX..  O                 ##%%%% *************************",
"************************* %%%%#  .XX+@@@@X..  O      .XX@@@@+X.  #%%%% *************************",
"************************* $%%$#  XXX@@@@@X..  O      XXX@@@@@XX  #$%%$ *************************",
"*************************                     O                        *************************",
"************************* $%%$#    X@@@@@@@X. O     .X@@@@@@X    #$%%$ *************************",
"************************* %%%%# OOO @@@@@@@XX O     XX@@@@@@ OOO #%%%% *************************",
"************************* &%%%# OOO @@@@@@@XX O     XX@@@@@@ OOO #%%%& *************************",
"************************* &%%%#    X@@@@@@@XX O     XX@@@@@@X    #%%%& *************************",
"************************* %%%%# X@@@@@@@@@@X. O     .X@@@@@@@@@X #%%%% *************************",
"************************* &%%%#               O                  #%%%& *************************",
"************************* %%%%#               O     .X@@@@@@@@@X #%%%% *************************",
"************************* %%%%# .XXXXXXXXXX.. O     XX@@@@@@@@@@ #%%%% *************************",
"************************* %%%%# XXXXXXXXXXX.. O     XX@@@@@@@@@@ #%%%% *************************",
"************************* $%%$# .XXXXXXXXXX.. O     .X@@@@@@@@@X #$%%$ *************************",
"*************************                     O                        *************************",
"************************* $%%$# X@@@@@@@@@XX. O     .XX@@@@@@@@X #$%%$ *************************",
"************************* %%%%# @@@@@@@@@@XXX O     XXX@@@@@@@@@ #%%%% *************************",
"************************* &%%%# @@@@@@@@@@X.         .X@@@@@@@@@ #%%%& *************************",
"************************* &%%%# X@@@@@@@@@X OO     OO X@@@@@@@@X #%%%& *************************",
"************************* %%%%#             OO     OO            #%%%% *************************",
"************************* &%%%#             OO     OO .X@@@@@@@X #%%%& *************************",
"************************* %%%%#  .XXXXXXXX. OO     OO XX@@@@@@@@ #%%%% *************************",
"************************* %%%%#  XXXXXXXXX. OO     OO XX@@@@@@@@ #%%%% *************************",
"************************* %%%%#  .XXXXXXXX. OO     OO .X@@@@@@@X #%%%% *************************",
"************************* $%%$#             OO     OO            #$%%$ *************************",
"*************************       X@@@@@@@@@X OO     OO                  *************************",
"************************* $%%$# @@@@@@@@@@X OO     OO ..XXXXXX.  #$%%$ *************************",
"************************* %%%%# @@@@@@@@@@X OO     OO ..XXXXXXX  #%%%% *************************",
"************************* &%%%# X@@@@@@@@@X OO     OO ..XXXXXX.  #%%%& *************************",
"************************* &%%%#             OO     OO            #%%%& *************************",
"************************* %%%%# X@@@@@@@@@X OO     OO X@@@@@@@@@ #%%%% *************************",
"************************* &%%%#    X@@@@@@X.  O      .X@@@@@X    #%%%& *************************",
"************************* %%%%# OOO @@@@@@XX. O     .XX@@@@@ OOO #%%%% *************************",
"************************* %%%%# OOO @@@@@@XXX O     XXX@@@@@ OOO #%%%% *************************",
"************************* %%%%#    X@@@@@@XX. O     .XX@@@@@X    #%%%% *************************",
"************************* $%%$#               O                  #$%%$ *************************",
"*************************       .XXXXXXXXX..  O     .X@@@@@@@@@X       *************************",
"************************* $%%$# XXXXXXXXXX..  O     XX@@@@@@@@@@ #$%%$ *************************",
"************************* %%%%# .XXXXXXXXX..  O     XX@@@@@@@@@@ #%%%% *************************",
"************************* &%%%#               O     .X@@@@@@@@@X #%%%& *************************",
"************************* &%%%#               O                  #%%%& *************************",
"************************* %%%%# X@@@@@@@@@@X. O                  #%%%% *************************",
"************************* $%%$# @@@@@@@@@@@XX O      ..XXXXXXXX  #$%%$ *************************",
"************************* ####o X@@@@@@@@@@X. O      ..XXXXXXX.  o#### *************************",
"*************************                                              *************************",
"*************************                                              *************************",
"************************************************************************************************",
"************************************************************************************************",
"************************************************************************************************",
"************************************************************************************************",
"************************************************************************************************",
"************************************************************************************************",
"************************************************************************************************",
"************************************************************************************************",
"************************************************************************************************",
"************************************************************************************************",
"************************************************************************************************",
"************************************************************************************************",
"************************************************************************************************",
"************************************************************************************************",
"************************************************************************************************",
"************************************************************************************************"
};
