/* XPM */
static char *_9836_eb954b47194aebd575ea70fd807f311a79a14c0de7a790ef1e10d7725ad81867[] = {
/* columns rows colors chars-per-pixel */
"39 46 14 1 ",
"  c black",
". c #3A0100",
"X c #9A0000",
"o c #F83A27",
"O c #A24300",
"+ c #CA9A00",
"@ c #DA891C",
"# c #F8E900",
"$ c #125F89",
"% c #4D9ACA",
"& c #9A9A9A",
"* c #F8CA91",
"= c #F8F8F8",
"- c None",
/* pixels */
"---------------------------------------",
"------------------------    -----------",
"----------------------  ####  ---------",
"--------------------- +++##### --------",
"-------------------- +++++oooXX     ---",
"-------------------- +++XXoo####### ---",
"------------------- ++XXX####+OO++ ----",
"------------------- +XX##+OOOOOOOO-----",
"------------------- X#+OOOOOOOO O------",
"------------------ ++OOOOO@@O@O -O-----",
"----------------- ++ OOO@= @O@  -------",
"---------------- +++O*O@= = *O --------",
"----------------    O*@*&=&*** --------",
"--------------- O@@@  @******O --------",
"-------------- OOOO X  ****   ---------",
"------------- OOOO ooX@O** *** --------",
"------------ OOO  X** X   ***O --------",
"------------  O  X **@  - ***** -------",
"------------ O   X ***  - **@*O -------",
"------------ O O X @**   **@@** -------",
"-------------    oo *@ ***@@@* --------",
"--------------- Xoo @@***@    ---------",
"--------------- XoXX @@@  -------------",
"-------------- XooooX   ---------------",
"-------------- Xoooo#X ----------------",
"--------------  oooo   ----------------",
"------------- $$     $  ---------------",
"---   ------ $$$%%%%$$$  --------------",
"-- *** ---- $$%%%%$$$$$$$ -------------",
"-- ***  -- &%%%%$$ $$$$$$$ ------------",
"-- *@@** - =%%%$$  $$$$$$$$ -----------",
"-- *@ ***  ==$$$ --  $$$$&&& ----------",
"-  *@@ ***  === ----- $$&... ----------",
"- * @   @@@@   -------  &.@@ ----------",
"- *@ @ - @@  ---------- &.O@ ----------",
"-- @@  --   ------------  OO@ -----  --",
"---   -------------------- O@@     @   ",
"--------------------------- O@@@  @@ @ ",
"---------------------------- O@@ O     ",
"----------------------------- OO  +++ -",
"----------------------------- OO     --",
"----------------------------- O ++ ----",
"-----------------------------  +  -----",
"------------------------------   ------",
"---------------------------------------",
"---------------------------------------"
};
