/* XPM */
static char *_f7f15c6fd0d4497ec31438a90bfd1fexsB6x8vOXIG7j1Xy[] = {
/* columns rows colors chars-per-pixel */
"47 64 224 2 ",
"   c None",
".  c #030203",
"X  c #0D0C0C",
"o  c #0A0805",
"O  c #110E09",
"+  c #17110D",
"@  c #181614",
"#  c #241C16",
"$  c #321F16",
"%  c #241B0A",
"&  c #2B2218",
"*  c #322518",
"=  c #33270F",
"-  c #291339",
";  c #3A1235",
":  c #2A2726",
">  c #332A24",
",  c #38322A",
"<  c #33323A",
"1  c #0E1B3A",
"2  c #520D12",
"3  c #7B040A",
"4  c #77080C",
"5  c #7B0F12",
"6  c #661516",
"7  c #731214",
"8  c #670A12",
"9  c #442A1C",
"0  c #483719",
"q  c #583B1B",
"w  c #693C1C",
"e  c #4F112B",
"r  c #473428",
"t  c #543728",
"y  c #583C34",
"u  c #47352A",
"i  c #70372D",
"p  c #711F2C",
"a  c #5B441C",
"s  c #654C1D",
"d  c #70551F",
"f  c #6B511C",
"g  c #59462A",
"h  c #4B433A",
"j  c #5C4B3C",
"k  c #794B28",
"l  c #6B5323",
"z  c #775B21",
"x  c #664937",
"c  c #7A4D39",
"v  c #655539",
"b  c #775637",
"n  c #6B422E",
"m  c #786537",
"M  c #7F6123",
"N  c #151E54",
"B  c #172B5B",
"V  c #102251",
"C  c #292F55",
"Z  c #142B6A",
"A  c #152D70",
"S  c #27366D",
"D  c #2C1D4B",
"F  c #471B40",
"G  c #384772",
"H  c #584F47",
"J  c #695745",
"K  c #785844",
"L  c #76644E",
"P  c #786A57",
"I  c #746B56",
"U  c #465476",
"Y  c #54617F",
"T  c #766D63",
"R  c #7A7366",
"E  c #606368",
"W  c #8A0209",
"Q  c #92040B",
"!  c #93090F",
"~  c #900006",
"^  c #880C11",
"/  c #960C12",
"(  c #891819",
")  c #9C141A",
"_  c #94151A",
"`  c #A2151A",
"'  c #991B21",
"]  c #8D1C20",
"[  c #A41D23",
"{  c #992426",
"}  c #90382C",
"|  c #AB2329",
" . c #B2272D",
".. c #B82D33",
"X. c #BD3137",
"o. c #BD3338",
"O. c #AD2B31",
"+. c #87442F",
"@. c #95543D",
"#. c #885839",
"$. c #886827",
"%. c #9B7628",
"&. c #9E792A",
"*. c #957228",
"=. c #947B38",
"-. c #8D7138",
";. c #A27C2A",
":. c #A27F30",
">. c #8A5D43",
",. c #8A634C",
"<. c #95684D",
"1. c #8C7D4D",
"2. c #8C7942",
"3. c #856955",
"4. c #966E55",
"5. c #8C7559",
"6. c #9B7559",
"7. c #947D45",
"8. c #A56B4C",
"9. c #B26A49",
"0. c #AB7454",
"q. c #A97C5C",
"w. c #B77C5A",
"e. c #A9704F",
"r. c #857665",
"t. c #947F67",
"y. c #A37D61",
"u. c #C77B55",
"i. c #9B863D",
"p. c #AB832C",
"a. c #A7812B",
"s. c #B58B2E",
"d. c #B98F2F",
"f. c #A98B3A",
"g. c #B68E33",
"h. c #BD9333",
"j. c #B4953D",
"k. c #BD973C",
"l. c #AF903D",
"z. c #C29C39",
"x. c #C9A13D",
"c. c #99864B",
"v. c #92864F",
"b. c #A89349",
"n. c #B69A43",
"m. c #B7805D",
"M. c #AC924C",
"N. c #BCA34C",
"B. c #B5A151",
"V. c #98856A",
"C. c #8A8674",
"Z. c #9B8C79",
"A. c #9F937B",
"S. c #89826D",
"D. c #A88669",
"F. c #B88A69",
"G. c #BC916D",
"H. c #AA9575",
"J. c #B79876",
"K. c #A98C72",
"L. c #C3845F",
"P. c #C7A746",
"I. c #D1B14F",
"U. c #E3BB53",
"Y. c #C78A66",
"T. c #C79B76",
"R. c #DD9D74",
"E. c #D08D65",
"W. c #E2976C",
"Q. c #D5A37C",
"!. c #E6A479",
"~. c #E7C25A",
"^. c #F4CA5C",
"/. c #F9CE5F",
"(. c #FCCF60",
"). c #FDD161",
"_. c #1A3683",
"`. c #1C3885",
"'. c #233D8B",
"]. c #213A83",
"[. c #28418C",
"{. c #2A4594",
"}. c #395399",
"|. c #364E8E",
" X c #4F6398",
".X c #6D768E",
"XX c #435FAA",
"oX c #4763AC",
"OX c #4D68B1",
"+X c #526DB6",
"@X c #516DB8",
"#X c #7E879B",
"$X c #999A9B",
"%X c #8D8B88",
"&X c #B59E85",
"*X c #A49E9B",
"=X c #B8A787",
"-X c #BEB395",
";X c #B1A897",
":X c #ABAAAA",
">X c #D8AC82",
",X c #D8B68C",
"<X c #C8BC9A",
"1X c #CAB293",
"2X c #EAB487",
"3X c #C5B9AE",
"4X c #DAC89D",
"5X c #EAC99B",
"6X c #F0C597",
"7X c #DACBA2",
"8X c #C0C1BF",
"9X c #E9CEA1",
"0X c #E6D4A9",
"qX c #F5D8A8",
"wX c #EDDDB5",
"eX c #FAE4B3",
"rX c #F6E2B2",
"tX c #B0B9C1",
"yX c #BCC4C9",
"uX c #CDCECD",
"iX c #CFDBE1",
"pX c #DCEBF4",
"aX c #F3F6F8",
"sX c #E8EFF3",
/* pixels */
"                                                                                              ",
"                                                                                              ",
"                                                                                              ",
"                                                                                              ",
"                                                                                              ",
"                                                                                              ",
"                                                                                              ",
"                                                                                              ",
"                                    1.v.M.M.M.1.1.                                            ",
"                                5.I.~.^.(.).(.U.z.l.c.                                        ",
"                              B.^.(.(.(.(.(.(.).P.s.h.=.                                      ",
"                            b.U.(.U.(.(.^.~.U.I.s.s.g.g.$.                                    ",
"                          c.P.I.n.P.n.%.k w q q q s l z l g                                   ",
"                          B.I.c.$.k k #.=.f.j.j.n.n.l.f.i.-.v.                                ",
"                          l.i.m =.j.z.z.z.h.h.d.d.d.h.h.z.x.P.N.b.                            ",
"                        v =.N.I.x.h.h.s.s.;.*.*.&.p.s.s.s.s.s.d.P.N.v.                        ",
"                      v.B.I.P.h.d.p.*.f a b #.0 # 0 s $.;.s.d.s.p.g.P.v.                      ",
"                    c.I.x.d.g.p.z = + + t W.!.b . 9 r o = d p.;.;.s.g.P.                      ",
"                  c.I.h.s.g.$.0 O . & r <.qXeXQ.# r >.+ o O a %.;.&.:.j.2.                    ",
"                v.N.s.p.p.z * X . X g y T.eXeXqXJ 9 8.> O . o d ;.p.p.p.2.                    ",
"                b.%.&.%.d > @ . . @ K b 9XeXeXeXJ.y w.x + X X & $.&.&.:.m                     ",
"              v.g.&.p.*.0 : X X X # >.>.7XeXeXeX1XK e.>.+ X @ 0 a ;.p.m                       ",
"              P j.%.a.d * @ X X # y 3.*X%X=X9XeX7XR T 0.# @ # a *.*.b                         ",
"                v.l.p.$.f = & # @ >.:XsX$X=X2XeX1XuX$XK.t * 0 0 l v                           ",
"                  v.=.&.$.q r r $ 0.<XuXuXwXrXrXJ.1X;X4.9 * g j                               ",
"                      v j g a v i G.rX0X0XrXeXrXJ.8.0.K u                                     ",
"                              I v 4.qX<X4X0X0X,Xw.E.T.P                                       ",
"                                  u G.7X:X:XuX3X%XF.K.                                        ",
"                            C.y 8 2 t F.-X-X3X-Xy.t.                                          ",
"                        S.<XqXD.^ 3 +.e.<.6.<.c >.                                            ",
"                        4XeXeXY.{ ..( F.Q.m.w 2 i r.                                          ",
"                      =X7X9X2XL.{ o. .p T.qXY.7 6 3.                                          ",
"                    Z.V.V.6.E.e._ X.X.{ @.0XQ.( 4 K             C.r.                          ",
"                T R H.6.D.<.k } _ X.X...| @.<.4 3 >.R         ;X4X-XC.r.                      ",
"              I Z.V.1XT.>.<.c } _ o.o.o.X.^ 6 ! 4 >.T.y.D.K.&XwX&XJ.q.y.                      ",
"              4X,XV.7X>X4.J 9 4 ! ......o.( } ! 4 8.W.W.W.R.!.Y.,.<.0.5.                      ",
"            Z.5X!.6.7XT.Y.,.y 3 Q / ` | .._ ( Q 4 @.u.u.u.u.9.9.4.=Xu.t.                      ",
"              Y.E.@.=XQ.F.w.H 3 ~ Q ` | | 4 ( ! 8 j K c c c   #.5.H.q.T                       ",
"                5.  R D.L.4.y ^ ^ _ _ _ Q 4 { / 4               R 4.K                         ",
"                            p ' { { ) ) ! 4 {  .) 6                                           ",
"                            ^ O.O.{ [ / Q 5 } o.[ / 7                                         ",
"                          7 [ X.o.o.| ! W 2 p X. .' e S  X                                    ",
"                        e 3 ` ) [ ) Q Q 3 - N e ] F [.@XOX XU                                 ",
"                        < D ; e 8 W W ~ e Z A A C `.{.oX+X+XOXU                               ",
"                        |.oX}.'.Z N D ; C '.Z Z `.[.{.}.XXoX|.G                               ",
"                      U OX@X@XOX{.'.`.A S Z 1 1 Z `.`.{.'.G                                   ",
"                      |.oX+X@XoX}.'.'._.C         S A S                                       ",
"                    .X.X.X X}.'.'.'._.S             C         j                               ",
"                  :XsXaXaXuX#XG A _.B                   H >.@.c                               ",
"                  $XsXaXaXaXpXtX XV                     r.Q.w.                                ",
"                    %X%X*XyXpXpXuXE                     1X6X4.                                ",
"                      w.Y.r.:XiXyX                    A.0X2Xw.                                ",
"                    r.9X>X3.  %X                    h H.rX5X,.: :                             ",
"                    <XeXJ.                          h J 3.3.< g u y u                         ",
"                  r.4XqXr.                              J , j H.,.x h                         ",
"                  C.7X2X3.                                H j J v j H                         ",
"                h < u h >                                                                     ",
"                < J v j > ,                                                                   ",
"                J V.J.5.P K                                                                   ",
"                R L b v K J                                                                   ",
"                R P I L J j                                                                   ",
"                                                                                              ",
"                                                                                              ",
"                                                                                              "
};
