/* XPM */
static char *_6403_4267b8add8e7fafaa11fa563a2d37962b23bec6d2aef7fc79c0102108e1dc918[] = {
/* columns rows colors chars-per-pixel */
"33 50 14 1 ",
"  c black",
". c #3A0100",
"X c #9A0000",
"o c #BA3107",
"O c #F83A27",
"+ c #A24300",
"@ c #CA9A00",
"# c #DA891C",
"$ c #F8E900",
"% c #125F89",
"& c #9A9A9A",
"* c #F8CA91",
"= c #F8F8F8",
"- c None",
/* pixels */
"---------------------------------",
"------------      ---------------",
"----------  $$$$$$  -------------",
"--------- $$$ $$$$$$ ------------",
"-------- $$$@@ @@@$$$ -----------",
"-------- $$ @    @ @@$ ----------",
"------- @@@         @@$ ---------",
"------- @@           @@ ---------",
"------- @    #  #+   @@@ --------",
"----   - @  #* *# +   @@ --------",
"---  ** -  & *** =&   @ ---------",
"-- ***# --  =** = =+#  ----   ---",
"- ***+# -- &#****=&## ---- *** --",
"- *.## * -  * === ##  --- #+** --",
"- *#. *# -- *     *  * -- +***# -",
"- +++   ---- * ooo# X**  *#++*# -",
"-- +  -----  #*oo# OO**# * #*** -",
"-- +++ --- #X  ## OOO### # #++* -",
"--- +++ - ##XXXX@X  X ###   #*+ -",
"---- +++ ##+ XOOX      ##*     --",
"----- +++#++  OO ====   #**## ---",
"------ +++  - X ==..&& - *## ----",
"-------   --- X =.**.& --   -----",
"------------- O &.**#.% ---------",
"------------ XO &.**#.% ---------",
"------------ X %%&.###  ---------",
"----------- X %%%%&.*#  ---------",
"-----------  %%%%%%.**  ---------",
"---------- %%%%%%%%% *# ---------",
"---------- %%%%%%    **# --------",
"--------- %%%%%% --- **   -------",
"--------- %%%%% ---- *  ** ------",
"-------- &&&&& ----    *### -----",
"--------     & ---- **      -----",
"-------- ##++ ----- ##   @@ -----",
"-------- ###+ -----   @@@  ------",
"--------- ##++ -----      -------",
"----------  +++ -----------------",
"------------ +++ ----------------",
"------------- +++   -------------",
"-------------- +++++ ------------",
"--------------- #+++ ------------",
"--------------- ##++ ------------",
"--------------- ##+ -------------",
"--------------- #   -------------",
"---------------  #+ -------------",
"--------------- ## --------------",
"-------------- ## ---------------",
"--------------   ----------------",
"---------------------------------"
};
