/* XPM */
static char *_1494_13a6d72b4d9fb074d7a75ddc097674752f3e38afb301184594bc949167f55400[] = {
/* columns rows colors chars-per-pixel */
"38 47 14 1 ",
"  c black",
". c #3A0100",
"X c #9A0000",
"o c #F83A27",
"O c #A24300",
"+ c #CA9A00",
"@ c #DA891C",
"# c #F8E900",
"$ c #125F89",
"% c #4D9ACA",
"& c #9A9A9A",
"* c #F8CA91",
"= c #F8F8F8",
"- c None",
/* pixels */
"--------------------------------------",
"--------------------------------------",
"--------------------------------------",
"----------------   -------------------",
"--------------  +++  -----------------",
"------------- ######+ ----------------",
"------------ #####++++ ---------------",
"------------ ####+++++ ---------------",
"--------    XooooX+++++ --------------",
"-------- ########XXXXXX --------------",
"--------- +     +###+XX --------------",
"----------  O       +##+ -------------",
"--------- - O@ @ =     +# ------------",
"------------ @* & =O *  ++ -----------",
"------   --- ****=&@O* +  ------------",
"-----  ** -- .******@   --------------",
"---- ***@ --- *  *** -----------------",
"--- ***O@ ---- ****O@    -------------",
"--- *.@@ * ---- ..O@XX ** ------------",
"--- *@. *@ ---    @Xo **** -----------",
"---- OO   ---- @X Xo @**@* -----------",
"-----  OO --- @@Xooo O*@@* -----------",
"------ OOO - @@@ X#oo O@@** ----------",
"------- OOO @@O  XXooo   *** ---------",
"-------- OOOOO - XXXoooX  @** --------",
"--------- OO  --- X#oooX   @* --------",
"----------  ----- XXXooX -   ---------",
"----------------  XoooooX ------------",
"--------------- XXX#XoooX ------------",
"-------------   XXX XoooX ------------",
"----------   $$    $ Xooo  -----------",
"---------  &&$$$$$$$$    $$ ----------",
"-------- @@.&&$$$$$$$%%%%=== ---------",
"-------- @@@.&$$$    $$%==... --------",
"--------- @@.&&  ----  $&.**@ --------",
"---------- @@  -------- &.**@ --------",
"----------- @ ----------   @@ --------",
"----------- @@ -----------  * --------",
"------------ @ ------------ ** -------",
"------------ @O ----------- ** -------",
"----------- @@@ ----------- *** ------",
"---------  @@@@O ---------- @**@ -----",
"-------  @ @@@@O ---------    @   ----",
"------ @@@O OOOO ---------  **  ** ---",
"------           --------- @*** **@ --",
"---------------------------         --",
"--------------------------------------"
};
