/* XPM */
static char *_5085_709e1d6815319920b186b3d9df3212a6bb90953e26f5decf0807eb8ed34a018a[] = {
/* columns rows colors chars-per-pixel */
"39 46 7 1 ",
"  c black",
". c #A24300",
"X c #CA9A00",
"o c #125F89",
"O c #4D9ACA",
"+ c #F8F8F8",
"@ c None",
/* pixels */
"@@@@@@@@@@@@@@@@@@@@@@@@@@@@@@@@@@@@@@@",
"@@@@@@@@@@@@@@@@@@@@@@@@++++@@@@@@@@@@@",
"@@@@@@@@@@@@@@@@@@@@@@++    ++@@@@@@@@@",
"@@@@@@@@@@@@@@@@@@@@@+ooo     +@@@@@@@@",
"@@@@@@@@@@@@@@@@@@@@+oooooOOO+++++++@@@",
"@@@@@@@@@@@@@@@@@@@@+ooo++OO       +@@@",
"@@@@@@@@@@@@@@@@@@@+oo+++    oOOoo+@@@@",
"@@@@@@@@@@@@@@@@@@@+o++  oOOOOOOOO@@@@@",
"@@@@@@@@@@@@@@@@@@@++ oOOOOOOOO+O@@@@@@",
"@@@@@@@@@@@@@@@@@@+ooOOOOOooOoO+@O@@@@@",
"@@@@@@@@@@@@@@@@@+oo+OOOo +oOo++@@@@@@@",
"@@@@@@@@@@@@@@@@+oooOoOo + +oO+@@@@@@@@",
"@@@@@@@@@@@@@@@@++++Ooooo oooo+@@@@@@@@",
"@@@@@@@@@@@@@@@+Oooo++oooooooO+@@@@@@@@",
"@@@@@@@@@@@@@@+OOOO++++oooo+++@@@@@@@@@",
"@@@@@@@@@@@@@+OOOO+OO+oOoo+ooo+@@@@@@@@",
"@@@@@@@@@@@@+OOO+++oo+++++oooO+@@@@@@@@",
"@@@@@@@@@@@@++O++++ooo++@+ooooo+@@@@@@@",
"@@@@@@@@@@@@+O+++++ooo++@+ooooO+@@@@@@@",
"@@@@@@@@@@@@+O+O+++ooo+++oooooo+@@@@@@@",
"@@@@@@@@@@@@@++++OO+oo+ooooooo+@@@@@@@@",
"@@@@@@@@@@@@@@@++OO+oooooo++++@@@@@@@@@",
"@@@@@@@@@@@@@@@++O+++ooo++@@@@@@@@@@@@@",
"@@@@@@@@@@@@@@++OOOO++++@@@@@@@@@@@@@@@",
"@@@@@@@@@@@@@@++OOOO ++@@@@@@@@@@@@@@@@",
"@@@@@@@@@@@@@@++OOOO+++@@@@@@@@@@@@@@@@",
"@@@@@@@@@@@@@+XX+++++X++@@@@@@@@@@@@@@@",
"@@@+++@@@@@@+XXX....XXX++@@@@@@@@@@@@@@",
"@@+ooo+@@@@+XX....XXXXXXX+@@@@@@@@@@@@@",
"@@+ooo++@@+o....XX+XXXXXXX+@@@@@@@@@@@@",
"@@+ooooo+@+ ...XX++XXXXXXXX+@@@@@@@@@@@",
"@@+oo+ooo++  XXX+@@++XXXXooo+@@@@@@@@@@",
"@++ooo+ooo++   +@@@@@+XXo++++@@@@@@@@@@",
"@+o+o+++oooo+++@@@@@@@++o+oo+@@@@@@@@@@",
"@+oo+o+@+oo++@@@@@@@@@@+o+Oo+@@@@@@@@@@",
"@@+oo++@@+++@@@@@@@@@@@@++OOo+@@@@@++@@",
"@@@+++@@@@@@@@@@@@@@@@@@@@+Ooo+++++o+++",
"@@@@@@@@@@@@@@@@@@@@@@@@@@@+Oooo++oo+o+",
"@@@@@@@@@@@@@@@@@@@@@@@@@@@@+Ooo+O+++++",
"@@@@@@@@@@@@@@@@@@@@@@@@@@@@@+OO++ooo+@",
"@@@@@@@@@@@@@@@@@@@@@@@@@@@@@+OO+++++@@",
"@@@@@@@@@@@@@@@@@@@@@@@@@@@@@+O+oo+@@@@",
"@@@@@@@@@@@@@@@@@@@@@@@@@@@@@++o++@@@@@",
"@@@@@@@@@@@@@@@@@@@@@@@@@@@@@@+++@@@@@@",
"@@@@@@@@@@@@@@@@@@@@@@@@@@@@@@@@@@@@@@@",
"@@@@@@@@@@@@@@@@@@@@@@@@@@@@@@@@@@@@@@@"
};
