/* XPM */
static char *_2418_5eb75b7ee284486fe11f124163ee9ce30474c9e3d02c95fac3a11b5c38920f01[] = {
/* columns rows colors chars-per-pixel */
"33 50 6 1 ",
"  c black",
". c #CA9A00",
"X c #125F89",
"o c #9A9A9A",
"O c #F8F8F8",
"+ c None",
/* pixels */
"+++++++++++++++++++++++++++++++++",
"++++++++++++OOOOOO+++++++++++++++",
"++++++++++OO      OO+++++++++++++",
"+++++++++O   O      O++++++++++++",
"++++++++O   XXoXXX   O+++++++++++",
"++++++++O  oXooooXoXX O++++++++++",
"+++++++OXXXoooooooooXX O+++++++++",
"+++++++OXXoooooooooooXXO+++++++++",
"+++++++OXooooXooXooooXXXO++++++++",
"++++OOO+OXOoXXoXXoooooXXO++++++++",
"+++OOXXO+OOXOXXXO XoooXO+++++++++",
"++OXXXXO++OO XXO O oXOO++++OOO+++",
"+OXXXoXO++OXXXXXX XXXO++++OXXXO++",
"+OXOXXOXO+OOXO   OXXOO+++OXoXXO++",
"+OXXOOXXO++OXOOOOOXOOXO++OoXXXXO+",
"+OoooOOO++++OXooooXOOXXOOXXooXXO+",
"++OoOO+++++OOXXooXOooXXXOXOXXXXO+",
"++OoooO+++OXOOOXXOoooXXXOXOXooXO+",
"+++OoooO+OXXOOOOXOOOOOXXXOOOXXoO+",
"++++OoooOXXoOOooOOOOOOOXXXOOOOO++",
"+++++OoooXooOOooO    OOOXXXXXO+++",
"++++++OoooOO+OOO  OOXXO+OXXXO++++",
"+++++++OOO+++OOO OXXOXO++OOO+++++",
"+++++++++++++OoOXOXXXO.O+++++++++",
"++++++++++++OOoOXOXXXO.O+++++++++",
"++++++++++++OOO..XOXXXOO+++++++++",
"+++++++++++OOO....XOXXOO+++++++++",
"+++++++++++OO......OXXOO+++++++++",
"++++++++++O.........OXXO+++++++++",
"++++++++++O......OOOOXXXO++++++++",
"+++++++++O......O+++OXXOOO+++++++",
"+++++++++O.....O++++OXOOXXO++++++",
"++++++++OXXXXXO++++OOOOXXXXO+++++",
"++++++++OOOOOXO++++OXXOOOOOO+++++",
"++++++++OXXooO+++++OXXOOOXXO+++++",
"++++++++OXXXoO+++++OOOXXXOO++++++",
"+++++++++OXXooO+++++OOOOOO+++++++",
"++++++++++OOoooO+++++++++++++++++",
"++++++++++++OoooO++++++++++++++++",
"+++++++++++++OoooOOO+++++++++++++",
"++++++++++++++OoooooO++++++++++++",
"+++++++++++++++OXoooO++++++++++++",
"+++++++++++++++OXXooO++++++++++++",
"+++++++++++++++OXXoO+++++++++++++",
"+++++++++++++++OXOOO+++++++++++++",
"+++++++++++++++OOXoO+++++++++++++",
"+++++++++++++++OXXO++++++++++++++",
"++++++++++++++OXXO+++++++++++++++",
"++++++++++++++OOO++++++++++++++++",
"+++++++++++++++++++++++++++++++++"
};
