/* XPM */
static char *_7862_b85bf377fb0b9556847cdd01a1f92f32aa4fbcf57e00dc37afcd9c8eba01d13b[] = {
/* columns rows colors chars-per-pixel */
"39 46 14 1 ",
"  c black",
". c #3A0100",
"X c #9A0000",
"o c #F83A27",
"O c #A24300",
"+ c #CA9A00",
"@ c #DA891C",
"# c #F8E900",
"$ c #125F89",
"% c #4D9ACA",
"& c #9A9A9A",
"* c #F8CA91",
"= c #F8F8F8",
"- c None",
/* pixels */
"---------------------------------------",
"-----------    ------------------------",
"---------  ####  ----------------------",
"-------- #####+++ ---------------------",
"---     XXooo+++++ --------------------",
"--- #######ooXX+++ --------------------",
"---- ++  +####XXX++ -------------------",
"-----        +##XX+ -------------------",
"------  O  O    +#X -------------------",
"----- - O@ @@     ++ ------------------",
"-------  @ @ =@    ++ -----------------",
"-------- O* = =@ * +++ ----------------",
"-------- ***&=&*@*     ----------------",
"-------- O******@  @@@O ---------------",
"---------   ****  X OOOO --------------",
"-------- *** **O@Xoo OOOO -------------",
"-------- O***   X **X  OOO ------------",
"------- ***** -  @** X  O  ------------",
"------- O*@** -  *** X   O ------------",
"------- **@@**   **@ X O O ------------",
"-------- *@@@*** @* oo    -------------",
"---------    @***@@ ooX ---------------",
"-------------  @@@ XXoX ---------------",
"---------------   XooooX --------------",
"---------------- X#ooooX --------------",
"----------------   oooo  --------------",
"---------------  $     $$ -------------",
"--------------  $$$%%%%$$$ ------   ---",
"------------- $$$$$$$%%%%$$ ---- *** --",
"------------ $$$$$$$ $$%%%%& --  *** --",
"----------- $$$$$$$$  $$%%%= - **@@* --",
"---------- &&&$$$$  -- $$$==  *** @* --",
"---------- ...&$$ ----- ===  *** @@*  -",
"---------- @@.&  -------   @@@@   @ * -",
"---------- @O.& ----------  @@ - @ @* -",
"--  ----- @OO  ------------   --  @@ --",
"   @     @@O --------------------   ---",
" @ @@  @@@O ---------------------------",
"     O @@O ----------------------------",
"- +++  OO -----------------------------",
"--     OO -----------------------------",
"---- ++ O -----------------------------",
"-----  +  -----------------------------",
"------   ------------------------------",
"---------------------------------------",
"---------------------------------------"
};
