/* XPM */
static char *_c691c689adf496eed41dcd02cdfd60eZk43apHXHuKC9Hl9[] = {
/* columns rows colors chars-per-pixel */
"48 48 191 2 ",
"   c #5E9066",
".  c #5C8D64",
"X  c #4C7453",
"o  c #516351",
"O  c #5A5754",
"+  c #676867",
"@  c #767478",
"#  c #847F87",
"$  c #837E86",
"%  c #595854",
"&  c #585652",
"*  c #686969",
"=  c #506251",
"-  c #585552",
";  c #656665",
":  c #747276",
">  c #827D85",
",  c #4D7553",
"<  c #475948",
"1  c #464241",
"2  c #575552",
"3  c #626260",
"4  c #6E6E6F",
"5  c #777579",
"6  c #676868",
"7  c #5A5855",
"8  c #465847",
"9  c #44403F",
"0  c #565450",
"q  c #60605E",
"w  c #6A6B6C",
"e  c #757376",
"r  c #7D797F",
"t  c #78757A",
"y  c #6B6A6B",
"u  c #5E5E5B",
"i  c #4E4C4A",
"p  c #52504D",
"a  c #5A5854",
"s  c #706F71",
"d  c #77757A",
"f  c #44413F",
"g  c #61605E",
"h  c #696A6B",
"j  c #757377",
"k  c #7F7B82",
"l  c #6B6C6C",
"z  c #605F5D",
"x  c #55534F",
"c  c #444240",
"v  c #4E4C48",
"b  c #666766",
"n  c #7F7B81",
"m  c #847E87",
"M  c #6B6B6C",
"N  c #465747",
"B  c #433F3F",
"V  c #565350",
"C  c #696B6B",
"Z  c #696A6A",
"A  c #6A6B6B",
"S  c #61615F",
"D  c #575551",
"F  c #585753",
"G  c #817C84",
"H  c #5D8F65",
"J  c #56835D",
"K  c #4D6C51",
"L  c #485748",
"P  c #565651",
"I  c #626160",
"U  c #575553",
"Y  c #4D4B48",
"T  c #595753",
"R  c #5F5F5D",
"E  c #656564",
"W  c #747376",
"Q  c #7C797F",
"!  c #5F9267",
"~  c #55825C",
"^  c #4C6F51",
"/  c #555650",
"(  c #5F5E5C",
")  c #686868",
"_  c #4B4946",
"`  c #43413F",
"'  c #5B5956",
"]  c #817D84",
"[  c #5F9167",
"{  c #54805B",
"}  c #496B4E",
"|  c #444440",
" . c #4F4C4A",
".. c #5B5955",
"X. c #454341",
"o. c #42403E",
"O. c #598861",
"+. c #537D5A",
"@. c #475C49",
"#. c #4A5248",
"$. c #4E4B49",
"%. c #4E4C49",
"&. c #474543",
"*. c #44423F",
"=. c #6F6F71",
"-. c #5E8F65",
";. c #5B8B63",
":. c #4C7252",
">. c #475847",
",. c #454240",
"<. c #54524E",
"1. c #5E9167",
"2. c #4B6F51",
"3. c #434740",
"4. c #4C4B47",
"5. c #54524F",
"6. c #5B5A56",
"7. c #54815B",
"8. c #4B6D50",
"9. c #4C4D48",
"0. c #5C5B58",
"q. c #4C6E51",
"w. c #585A54",
"e. c #585651",
"r. c #595752",
"t. c DimGray",
"y. c #54815C",
"u. c #4D7052",
"i. c #656966",
"p. c #6B6C6D",
"a. c #585551",
"s. c #55835D",
"d. c #537256",
"f. c #536353",
"g. c #676968",
"h. c #6C6C6D",
"j. c #5C5956",
"k. c #4C7452",
"l. c #5A5654",
"z. c #6D6D6E",
"x. c #767479",
"c. c #6D6D6F",
"v. c #475848",
"b. c #4B7352",
"n. c #454141",
"m. c #526251",
"M. c #565851",
"N. c #585953",
"B. c #676A68",
"V. c #565551",
"C. c #555550",
"Z. c #565751",
"A. c #575651",
"S. c #5A5955",
"D. c #6E6B6D",
"F. c #6E6A6C",
"G. c #676565",
"H. c #858088",
"J. c #78767A",
"K. c #686968",
"L. c #5E5D5B",
"P. c #726F72",
"I. c #55534E",
"U. c #6C696B",
"Y. c #62615F",
"T. c #565554",
"R. c #656565",
"E. c #5C5A57",
"W. c #4E4D4A",
"Q. c #575756",
"!. c #51504E",
"~. c #4C4A47",
"^. c #5E5C59",
"/. c #43413E",
"(. c #4C4947",
"). c #413F3D",
"_. c #817C83",
"`. c #807B82",
"'. c #737174",
"]. c #666767",
"[. c #585653",
"{. c #53514D",
"}. c #646464",
"|. c #837E87",
" X c #4F4D4A",
".X c #5C5B57",
"XX c #6A6A6A",
"oX c #757477",
"OX c #464442",
"+X c #777479",
"@X c white",
/* pixels */
"                                              . X o O + @ # $ $ $ # @ + % & % + @ # $ $ $ # @ * ",
"                                              . X o O + @ # $ $ $ # @ + % & % + @ # $ $ $ # @ * ",
"                                              . X = - ; : > $ $ $ # @ + % & % + @ # $ $ $ # @ * ",
"                                              . , < 1 2 3 4 > $ $ # 5 6 7 & % + @ # $ $ $ # @ * ",
"                                              . , 8 9 0 q w e r > t y u i p a 6 s d > $ $ # @ * ",
"                                              . , 8 f 0 g h * j k l z x c v a b * w n > $ m 5 M ",
"                                              . X N B V g C Z A l A S & 0 D & F S A A 5 m $ > G ",
"                                              H J K L P g A Z Z * I U Y D & T R E w W Q $ $ $ $ ",
"                                                ! ~ ^ / ( * ) ) b & _ ` 0 T ' * Z l ] $ $ $ $ $ ",
"                                                [ { } |  ...% a & X.o.c 0 z * Z Z M G $ $ $ $ $ ",
"                                                  O.+.@.#.$.D & D %.&.*.0 g A Z =.d > $ $ $ $ $ ",
"                                                  -.;.:.>.,.& a % T %.X.<.( * * @ # $ $ $ $ > G ",
"                                                1.~ 2.3.4.& b ) b T D 5.c %.6.+ @ # $ $ $ m 5 M ",
"                                                [ 7.8.9.U I * Z * S 0.D %.p a + @ # $ $ $ # @ * ",
"                                                [ 7.q.w.I A l l l A g e.r.& a t.5 m $ $ $ # @ * ",
"                                                ! y.u.i.* w n G n p.q a.& & ' r > $ $ $ $ # @ * ",
"                                              H s.d.f.g.s d > $ G h.q D & & j.k $ $ $ $ $ # @ * ",
"                                              . k.o l.+ @ # $ > n p.S T & & j.k $ $ $ $ $ # @ * ",
"                                              . X o O + @ # m 5 A Z * b % & j.k $ $ $ $ $ # @ * ",
"                                              . X o O + @ # # @ Z j s 6 % & j.k $ $ $ $ $ # @ * ",
"                                H . . . . . H . X o O + j > $ 5 z.> x.+ % & ' r > $ $ $ $ # @ * ",
"[ [ [ [ [ [ [ [ [ [ [ [ [ [ [ ! s.k.X X X X J H X o O 6 A c.> $ > # @ + % & a t.5 m $ $ $ # @ * ",
"7.7.7.7.7.7.7.7.7.7.7.7.7.7.7.y.d.o o o = v.K { b.o O ) Z A j @ @ @ s 6 % & % + @ # $ $ $ # @ * ",
"q.q.q.q.q.q.q.q.q.q.q.q.q.q.q.u.f.l.O O - n.L ^ ^ m.O b ) 6 + + + * Z ) % & % + @ # $ $ $ # @ * ",
"M.M.M.M.M.M.M.M.M.M.M.M.M.M.N.i.B.) + + ; V.C.Z.Z.A.& T T T T T S.* A * % & % + @ # $ $ $ # @ * ",
"q q q q q q q q q q q q q q S * Z A j @ j D.F.F.F.G.q q q q q q q q g z T & % + @ # $ $ $ # @ * ",
"h.h.h.h.h.h.h.h.h.h.h.h.h.h.h.l l c.> # # # # # H.J.l h.h.h.h.M * S.& a.& & % + @ # $ $ $ # @ * ",
"G G G G G G G G G G G G G G G G G G $ $ $ $ $ $ $ > G G G G ] e K.* z D & & % + @ # $ $ $ # @ * ",
"$ $ $ $ $ $ $ $ $ $ $ $ $ $ $ $ $ $ $ $ $ $ $ $ $ $ $ $ $ $ $ r e w E z T & % + @ # $ $ $ # @ * ",
"$ $ $ $ $ $ G G G G G G G G G $ $ $ $ $ $ $ $ $ $ $ $ $ $ $ $ $ ] l Z * % & % + @ # $ $ $ > j * ",
"$ $ $ $ $ G z.w M l l l M w z.G $ $ $ $ $ $ $ $ $ $ $ $ $ $ m # ] l Z ) % & 7 6 @ # $ $ G c.A Z ",
"$ $ $ $ $ > 5 @ j A Z A j @ 5 > $ $ $ $ $ $ $ $ $ $ $ $ $ > 5 @ j A Z ) a p i L.P.# $ $ G l Z Z ",
"G G G $ $ $ m # > c.l c.> # m $ $ $ G G G G G G G G G G G n w K.+ 6 ) b 6.%.c I.U.> $ > n l Z Z ",
"h.h.4 > # # # # m > ] > m # # # # > 4 h.h.h.h.h.h.h.h.h.h.p.A S T % % ' ) R 0 D Y.4 > t A Z Z Z ",
"q q Y.U.F.D.j @ @ @ @ @ @ @ @ @ P.U.Y.q q q q q q q q q q q g 0.& & & & T.U & e.q M j =.Z Z Z Z ",
"a.a.D x x D ; + + + + + + + + 6 L.I.D a.a.a.a.a.a.a.a.a.a.a.a.& & & & 0 c %.a 0 ( * * Z Z Z * ) ",
"a.e.0 X.` X.& a % 7 7 7 7 a % 7 i c 0 e.a.a.a.a.a.a.a.a.D D D D D D D D x ( R.X.%.E.* A C A I a ",
"q q ( W.Y %.D & D %.Y Y Y p & & p %.( q q q q q q q q q G.F.F.F.F.F.G.q q E ) Q.!.%.( g g S U ~.",
"h.h.A ^.' a % a & X.o.o./.i 7 % ..^.A h.h.h.h.h.h.h.h.l J.H.# # # H.J.l h.p.l l Q.X.0 e.D 0 (.).",
"G G _.`.'.].6 ) b [.~.` {.( * ].'.`._.G G G G G G G G G > $ $ $ $ $ > G G G n w + }.T a.0 X.` o.",
"$ $ $ |.r j A Z ) a p i ( E w j r |.$ $ $ $ $ $ $ $ $ $ $ $ $ $ $ $ $ $ $ $ > 5 @ : 3 q (  X&.o.",
"$ $ $ $ $ ] l Z ) % & 7 * Z l k > $ $ $ $ $ $ $ $ $ $ $ $ $ $ $ $ $ $ $ $ $ $ m # > 4 h.A .X X` ",
"$ $ $ $ $ ] l Z * 7 & % ) Z Z A d # # $ $ $ $ $ $ $ $ $ $ $ $ $ $ $ $ $ $ $ $ $ $ $ G G n XXu x ",
"$ $ $ $ r e w E ( i p a ) Z Z Z =.@ @ r $ $ $ $ $ $ $ $ $ $ $ $ $ $ $ $ $ $ $ $ $ $ $ $ > J.y z ",
"G G G ] e K.* ( {.` ~.[.b * Z Z Z * * e ] G G G G G G G G G G G G G G G G > $ $ $ $ $ > G > oXZ ",
"h.h.h.h.M * E. X/.o.` OX& I A C C C h M h.h.h.h.h.h.h.h.h.h.h.h.h.h.h.h.l t # # # # # t l h.M h ",
"q q q q q (  XY Y Y &.` _ U S q q q q q q q q q q q q q q q q q q q q q z y +X@ @ @ +Xy z q q q ",
"a.a.a.a.a.0 ` Y T T Y ).).~.& a.a.a.a.a.a.a.a.a.a.a.a.a.a.a.a.a.a.a.a.a.D z Z * * * Z z D a.a.a."
};
