/* XPM */
static char *_3b63f66d5524e59fce2300e67d1b7a9TkojkmRJF6skTM1R[] = {
/* columns rows colors chars-per-pixel */
"48 48 205 2 ",
"   c #686969",
".  c #767478",
"X  c #847F87",
"o  c #837E86",
"O  c #676868",
"+  c #5A5855",
"@  c #585652",
"#  c #595854",
"$  c #666766",
"%  c #676867",
"&  c #5A5754",
"*  c #516351",
"=  c #4C7453",
"-  c #5C8D64",
";  c #5E9066",
":  c #726F72",
">  c #5E5D5B",
",  c #4E4D4A",
"<  c #52504D",
"1  c #5B5955",
"2  c #737174",
"3  c #7D797F",
"4  c #757377",
"5  c #827D85",
"6  c #6C696B",
"7  c #55534E",
"8  c #43413F",
"9  c #4C4B47",
"0  c #5C5A57",
"q  c #807B82",
"w  c #837E87",
"e  c #696A6B",
"r  c #6A6B6B",
"t  c #6D6D6F",
"y  c #6E6E6F",
"u  c #62615F",
"i  c #565450",
"p  c #4C4A47",
"a  c #5C5956",
"s  c #7F7B82",
"d  c #847E87",
"f  c #60605E",
"g  c #656564",
"h  c #6A6B6C",
"j  c #575551",
"k  c #4D4B48",
"l  c #575553",
"z  c #646362",
"x  c #807B83",
"c  c #777579",
"v  c #7C797F",
"b  c #55534F",
"n  c #5F5E5C",
"m  c #686A69",
"M  c #61605E",
"N  c #585651",
"B  c #6C6D6E",
"V  c #817C84",
"C  c #4F4D4A",
"Z  c #696B6B",
"A  c #61615F",
"S  c #6C6C6D",
"D  c #817D84",
"F  c #6B6B6C",
"G  c #42403E",
"H  c #474543",
"J  c #575653",
"K  c #757376",
"L  c #696A6A",
"P  c #454341",
"I  c #4B4946",
"U  c #827D84",
"Y  c #413F3D",
"T  c #4C4947",
"R  c #43413E",
"E  c #444240",
"W  c #44423F",
"Q  c #5A5854",
"!  c #626160",
"~  c #619266",
"^  c #609166",
"/  c #686868",
"(  c #595653",
")  c #80AA61",
"_  c #709E63",
"`  c #5D8F66",
"'  c #6F6F71",
"]  c #686968",
"[  c #62605F",
"{  c #566857",
"}  c #4C7452",
"|  c #619365",
" . c #84AC60",
".. c #729F63",
"X. c #78757A",
"o. c #817C83",
"O. c #6A6A6B",
"+. c #5B6D5E",
"@. c #4D7152",
"#. c #5B8B63",
"$. c #5D8F65",
"%. c #6B6C6C",
"&. c #7F7B81",
"*. c #4E4C49",
"=. c #5E5C59",
"-. c #60615E",
";. c #565A51",
":. c #55825C",
">. c #5E9167",
",. c #609266",
"<. c #4E4C4A",
"1. c #565851",
"2. c #4C6E50",
"3. c #54815B",
"4. c #5F9167",
"5. c #666767",
"6. c #4C6E51",
"7. c #575852",
"8. c #85AD60",
"9. c #739F63",
"0. c #4C4E48",
"q. c #4B6D50",
"w. c #719E63",
"e. c #689864",
"r. c #5D9066",
"t. c #4D4C48",
"y. c #424740",
"u. c #4B6F51",
"i. c #5C5957",
"p. c #516150",
"a. c #4B7051",
"s. c #5B5855",
"d. c #4B7352",
"f. c #547F5B",
"g. c #55815C",
"h. c #54815C",
"j. c #526251",
"k. c #4C6F51",
"l. c #5D8E64",
"z. c #5B8B62",
"x. c #4A6C4F",
"c. c #6D6D6E",
"v. c #575752",
"b. c #56835D",
"n. c #4E7755",
"m. c #4D7553",
"M. c #434841",
"N. c #42433F",
"B. c #42443F",
"V. c #77757A",
"C. c #706F71",
"Z. c #595754",
"A. c #5C5B58",
"S. c #506250",
"D. c #475848",
"F. c #4D6D51",
"G. c #547E5A",
"H. c #475B49",
"J. c #4C5E4C",
"K. c #516251",
"L. c #4D4D49",
"P. c DimGray",
"I. c #595753",
"U. c #6B6C6D",
"Y. c #575552",
"T. c #454141",
"R. c #475647",
"E. c #49694E",
"W. c #444440",
"Q. c #4F4C4A",
"!. c #636261",
"~. c #5B5956",
"^. c #767479",
"/. c #605F5D",
"(. c #434540",
"). c #54524E",
"_. c #747275",
"`. c #6B6A6B",
"'. c #5F5F5D",
"]. c #585653",
"[. c #847F88",
"{. c #747276",
"}. c #676767",
"|. c #6C6D6D",
" X c #54524F",
".X c #595752",
"XX c #585753",
"oX c #5B5A56",
"OX c #464442",
"+X c #656666",
"@X c #585551",
"#X c #575756",
"$X c #676565",
"%X c #6E6A6C",
"&X c gray39",
"*X c #78767A",
"=X c #858088",
"-X c #5A5955",
";X c #5E5E5C",
":X c #6A6A6A",
">X c #5E5E5B",
",X c #54514D",
"<X c #5C5B57",
"1X c #777479",
"2X c white",
/* pixels */
"  . X o o o X . O + @ # $ . X o o o X . % & * = - ; ; ; ; ; ; ; ; ; ; ; ; ; ; ; ; ; ; ; ; ; ; ; ",
"  . X o o o X : > , < 1 2 3 o o o o X . % & * = - ; ; ; ; ; ; ; ; ; ; ; ; ; ; ; ; ; ; ; ; ; ; ; ",
"  4 5 o o o 5 6 7 8 9 0 q w o o o o X . % & * = - ; ; ; ; ; ; ; ; ; ; ; ; ; ; ; ; ; ; ; ; ; ; ; ",
"e r t 5 X 5 y u i 8 p a s o o d o o X . % & * = - ; ; ; ; ; ; ; ; ; ; ; ; ; ; ; ; ; ; ; ; ; ; ; ",
"f g r 4 . 4 h f j k l z x o 5 c v o X . % & * = - ; ; ; ; ; ; ; ; ; ; ; ; ; ; ; ; ; ; ; ; ; ; ; ",
"b n       m e M N @ M B V o V r . X X . % & * = - ; ; ; ; ; ; ; ; ; ; ; ; ; ; ; ; ; ; ; ; ; ; ; ",
"8 C 0   r Z r A @ N f S V d D F . X X . % & * = - ; ; ; ; ; ; ; ; ; ; ; ; ; ; ; ; ; ; ; ; ; ; ; ",
"G H C n M M A J k j f S D 3 K L . X X . % & * = - ; ; ; ; ; ; ; ; ; ; ; ; ; ; ; ; ; ; ; ; ; ; ; ",
"G 8 P i N j i I 8 i f S U .     . X X . % & * = - ; ; ; ; ; ; ; ; ; ; ; ; ; ; ; ; ; ; ; ; ; ; ; ",
"Y T i j N i P R E i f S U .     . X X . % & * = - ; ; ; ; ; ; ; ; ; ; ; ; ; ; ; ; ; ; ; ; ; ; ; ",
"p l A M M n C H W i f S D 3 K L . X X . % & * = - ; ; ; ; ; ; ; ; ; ; ; ; ; ; ; ; ; ; ; ; ; ; ; ",
"Q ! r Z r   0 C P i f S V d D F . X X . % & * = - ; ; ; ; ; ; ; ; ; ; ; ~ ^ ; ; ; ; ; ; ; ; ; ; ",
"/   L L L     n i j f S V o V r . X X . % ( * = - ; ; ; ; ; ; ; ; ; ; ~ ) _ ` ; ; ; ; ; ; ; ; ; ",
"L L L L ' 4 F f N N f S V o 5 c v o X . ] [ { } - ; ; ; ; ; ; ; ; ; ; |  ...` ; ; ; ; ; ; ; ; ; ",
"L L L r X.5 y u j i n r o.o o d o o X . m O.+.@.#.$.; ; ; ; ; ; ; ~ ^ ~  ...` ; ; ; ; ; ; ; ; ; ",
"L L %.&.5 o 5 6 7 E *.=.q w o o o o X .   e -.;.@.:.>.; ; ; ; ; ~ ) _ ,. ...` ; ; ; ; ; ; ; ; ; ",
"L L %.V o o X : > <.< 1 2 3 o o o o o 3 K F M 1.2.3.4.; ; ; ; ; |  ...,. ...` ; ; ; ; ; ; ; ; ; ",
"L r t V o o X . O + @ # 5.. X o o o o o D S f 1.6.3.4.; ; ; ; ; |  ...,.) _ ` ; ; ; ; ; ; ; ; ; ",
"  4 5 o o o X . % # @ # % . X o o o o o V B M 7.6.3.4.; ; ; ; ; | 8.9.` ~ ^ ; ; ; ; ; ; ; ; ; ; ",
"  . X o o o X . % # @ # % . X o o o o o x z l 0.q.3.4.; ; ; ; ; ^ w.e.r.; ; ; ; ; ; ; ; ; ; ; ; ",
"  . X o o o X . % # @ # % . X o o o o o s a t.y.u.:.>.; ; ; ; ; ; ` r.; ; ; ; ; ; ; ; ; ; ; ; ; ",
"  . X o o o X . % # @ # % . X o o o o w q i.p.a.#.; 4.4.4.>.; ; ; ; ; ; ; ; ; >.4.4.4.4.4.4.4.4.",
"  . X o o o X . % # @ # % . X o o o o 3 2 s.* d.f.g.3.3.3.:.$.; ; ; ; ; ; ; $.:.h.g.g.h.3.3.3.3.",
"  . X o o o X . % # @ # % . X o o o 5 4 5.& j.k.6.6.6.6.2.@.#.- - - $.; l.- z.u.x.x.x.q.6.6.6.6.",
"  . X o o o X . % # @ # % . X o o V c.r / # v.1.1.1.1.1.1.;.@.} = = b.$.n.m.a.M.N.B.N.0.7.1.1.1.",
"  . X o o o X . % # @ # % . X o o 5 V.C.O Z.A.M f f f f f -.+.{ S.D.F.G.H.J.K.L.k k p l M f f f ",
"  . X o o o d c P.Q @ # % . d V 5 o 5 4 % I.M r U.S S S S U.r [ Y.T.R.E.W.Q.+ + + + Q !.B S S S ",
"  . X o o o o 5 3 ~.@ # % ^.5 c.V.5 t h ] I./.%.&.V V V V &.h   $ @ 9 (.).n   / / O 5._.D V V V ",
"  . X o o o o o s a @ # O C.4 r ' 4 r g f /.`.X.5 o o o o 5 V.C.  ! l k j M r L L r 4 3 o o o o ",
"  . X o o o o o s a @ # $   m L L     '.I.O c X o 5 V V 5 o X . m r A @ N f Z L r t 5 o o o o o ",
"  . X o o o o o s a @ @ I.A Z e r   ~.].I.$ . X d c r h V.X [.. m r M N @ A r m 4 5 o o o o o o ",
"  . X o o o o o s a @ @ j M L A M /.].A.!.{.3 o o 3 K r ' . . C.  A A.j k l !   C.X.5 o o o o o ",
"  . X o o o o 5 3 ~.@ @ N /.}.I.j @ I.A |.s D V V D s %.  % % O $ I.j  X8 I @ $ O L &.V V V V V ",
"  . X o o o d c P.Q @ .XN XX# @ @ # }.L r U.S S S S U.r A I.# # # I.*.8 G G P @ Q 0 r S S S S S ",
"  . X o o o X . % Q < <.'.A.@ @ @ I./.M f f f f f f f M A.@ @ @ j *.k k k k *.j < *.n f f f f f ",
"F c d o o o X . % oX*.OX+X'.i @ @ @ N @X@X@X@X@X@X@X@X@X@ @ @ @ i E C 1 + Z.@ I.*.E i N @X@X@X@X",
"V 5 o o o o X .   L '.i Q <.E i N @X@X@X@X@X@X@X@Xj j j j j j j j b n     /.j @ j i j @X@X@X@X@X",
"o o o o o 5 V.C.O #Xl @ @ < *.n f f f f f f f f f $X%X%X%X%X%X$Xf f g L L g /.XXA.M f f f f f f ",
"o o o o o V F O &XP *.+ # 1 =.r S S S S S S S S %.*X=XX X X =X*X%.S U.%.L L   -XA r U.S S S S S ",
"o o o o o D c.#XP ).n   5.2 q o.V V V V V V V V V 5 o o o o o 5 V V V &.r     /   h &.V V V V V ",
"o o o o 3 _.!.l *.n g h 4 3 w o o o o o o o o o o o o o o o o o o o o 5 c . 4 r ' V.5 o o o o o ",
"V 5 o X . $ I.@ +   L %.s 5 o o o o o o o o o o o o o o o o o o o o o o d X 5 c.c X o o o o o o ",
"F c X X c O + @ # / L L r V.X X o o o o o o o o o o o o o o o o o o o o o o o V 5 o o o o o o o ",
"  . o X.`.;X<.< Q / L L L ' . . 3 o o o o o o o o o o o o o o o o o o o o o o o o o o o o o o o ",
"  4 s :X>X,X8 p ].$   L L L     K D V V V V V V V V V V V V V V V V 5 o o o o o 5 V V V V V V V ",
"e F r <XC R G 8 OX@ ! r Z Z Z e F S S S S S S S S S S S S S S S S %.X.X X X X X X.%.S S S S S S ",
"f f n C k k k H 8 I l A f f f f f f f f f f f f f f f f f f f f f /.`.1X. . . 1X`./.f f f f f f ",
"@X@Xi 8 k I.I.k Y Y p @ @X@X@X@X@X@X@X@X@X@X@X@X@X@X@X@X@X@X@X@X@Xj /.L       L /.j @X@X@X@X@X@X"
};
