/* XPM */
static char *_24644662db240a9bb8db884d51e9606gmNsNppMCuko7EeY[] = {
/* columns rows colors chars-per-pixel */
"48 48 204 2 ",
"   c #585551",
".  c #575551",
"X  c #595753",
"o  c #676867",
"O  c #686969",
"+  c #565450",
"@  c #43413F",
"#  c #42403E",
"$  c #444240",
"%  c #4C4A47",
"&  c #585652",
"*  c #60605E",
"=  c #626260",
"-  c #747276",
";  c #767478",
":  c #61605E",
">  c #5F5E5C",
",  c #4F4D4A",
"<  c #474543",
"1  c #4D4B48",
"2  c #575553",
"3  c #61615F",
"4  c #6C6C6D",
"5  c #6E6E6F",
"6  c #827D85",
"7  c #847F87",
"8  c #6B6C6D",
"9  c #6A6B6B",
"0  c #696B6B",
"q  c #5C5A57",
"w  c #454341",
"e  c #817C84",
"r  c #837E86",
"t  c #7F7B81",
"y  c #686A69",
"u  c #696A6A",
"i  c #54524E",
"p  c #4B4946",
"a  c #666766",
"s  c #777579",
"d  c #757377",
"f  c #626160",
"g  c #706F71",
"h  c #847E87",
"j  c #6D6D6F",
"k  c #585651",
"l  c #6A6B6C",
"z  c #77757A",
"x  c #847F88",
"c  c #6D6D6E",
"v  c #6B6C6C",
"b  c #7D797F",
"n  c #757376",
"m  c #6F6F71",
"M  c #78757A",
"N  c #676565",
"B  c #78767A",
"V  c #7F7B82",
"C  c #807B83",
"Z  c #817D84",
"A  c #686968",
"S  c #686868",
"D  c #807C83",
"F  c DimGray",
"G  c #676868",
"H  c #565551",
"J  c #6F6B6D",
"K  c #858088",
"L  c #5C5956",
"P  c #646362",
"I  c #6C6D6E",
"U  c #6B6B6C",
"Y  c #5A5955",
"T  c #5A5854",
"R  c #636463",
"E  c #605F5D",
"W  c #585753",
"Q  c #5C5B58",
"!  c #62615F",
"~  c #6C696B",
"^  c #6E6A6C",
"/  c #4E4C48",
"(  c #51504E",
")  c #585857",
"_  c #737175",
"`  c #575552",
"'  c #575450",
"]  c #454340",
"[  c #827D84",
"{  c #55534F",
"}  c #5A5855",
"|  c #585653",
" . c #4E4C49",
".. c #595752",
"X. c #52504D",
"o. c #636261",
"O. c #4E4C4A",
"+. c #43413E",
"@. c #595854",
"#. c #5B5956",
"$. c #747275",
"%. c #666767",
"&. c #53514D",
"*. c #656564",
"=. c #6B6A6B",
"-. c #5F5F5C",
";. c #4C4C48",
":. c #434440",
">. c #585552",
",. c #454141",
"<. c #475647",
"1. c #49694E",
"2. c #444440",
"3. c #4F4C4A",
"4. c #5C5957",
"5. c #686869",
"6. c #4D4A48",
"7. c #4F574D",
"8. c #516351",
"9. c #475848",
"0. c #4D6D51",
"q. c #547E5A",
"w. c #475B49",
"e. c #4C5E4C",
"r. c #526453",
"t. c #596D5C",
"y. c #5D675E",
"u. c #615F5E",
"i. c #565851",
"p. c #575851",
"a. c #555650",
"s. c #444541",
"d. c #42443F",
"f. c #42423F",
"g. c #475C49",
"h. c #4D7653",
"j. c #4C7453",
"k. c #56835D",
"l. c #5D8F65",
"z. c #4E7755",
"x. c #4D7553",
"c. c #4C7552",
"v. c #516652",
"b. c #575751",
"n. c #575651",
"m. c #6A6A6B",
"M. c #4C6E51",
"N. c #4B6E50",
"B. c #4A6C4F",
"V. c #496B4E",
"C. c #537D5A",
"Z. c #5D8E65",
"A. c #5C8D64",
"S. c #5E9066",
"D. c #5D8E64",
"F. c #4B6D50",
"G. c #575852",
"H. c #656665",
"J. c #54815B",
"K. c #54815C",
"L. c #55815C",
"P. c #54805B",
"I. c #598861",
"U. c #5E9166",
"Y. c #507956",
"T. c #4C6F51",
"R. c #5F9167",
"E. c #5E8F65",
"W. c #4B6A4F",
"Q. c #565751",
"!. c #5D8F66",
"~. c #5D9066",
"^. c #609166",
"/. c #719E63",
"(. c #689864",
"). c #5E5E5B",
"_. c #619266",
"`. c #619365",
"'. c #85AD60",
"]. c #739F63",
"[. c #526452",
"{. c #80AA61",
"}. c #709E63",
"|. c #609266",
" X c #84AC60",
".X c #729F63",
"XX c #5A5754",
"oX c #4E7754",
"OX c #526652",
"+X c #595954",
"@X c #676968",
"#X c #547E5B",
"$X c #4E6E53",
"%X c #676B68",
"&X c #4C6F52",
"*X c #5E615D",
"=X c #7C797F",
"-X c #4C6E50",
";X c #726F72",
":X c #5E5D5B",
">X c #6D6A6C",
",X c #55534E",
"<X c #60605D",
"1X c white",
/* pixels */
"              . X o O O O O o X .                                           + @ # $ . X . @ % & ",
"* * * * * * * * = - ; ; ; ; - = * * * * * * * * * * * * * * * * * * * * * : > , < @ % 1 1 % 2 3 ",
"4 4 4 4 4 4 4 4 5 6 7 7 7 7 6 5 4 4 4 4 4 4 4 4 4 4 4 4 4 4 4 4 8 9 0 0 0 9 O q , @ # # w & = 9 ",
"e e e e e e e e e r r r r r r e e e e e e e e e e e e e e e e e t 9 O y u u u O > i @ p & a O y ",
"r r r r r r r r r r r r r r r r r r r r r r r r r r r r r r r r 6 s ; d 9 u u 9 : . 1 2 f O g ; ",
"r r r r r r r r r e 6 r r r r r r r r r r r r r r r r r r r r r r h 7 6 j 9 u 0 * k & 3 9 l z x ",
"r r r r r r r r 6 c s 7 7 r r r r r r r r r r r r r r r r r r r r r r r 6 d y 9 3 & k * v t 6 r ",
"r r r r r r r b n 9 m ; ; b r r r r r r r r r r r r r r r r r r r r r 6 M g O f 2 1 + N B 6 r r ",
"V C e e e e Z n A S O y O n Z e e e r r r r r r e e e e e e e e e e D b F G a & p @ H J K r r r ",
"L P I 4 4 4 4 U O Y 3 9 u 9 v 4 4 5 6 7 7 7 7 6 5 4 4 4 4 4 4 4 4 I P L T T & w # $ R d 7 r r r ",
"% 2 : * * * * : E W Q 3 O u O 3 * ! ~ ^ ^ ^ ^ ~ ! * * * * * * * * : 2 1 . & . / ( ) _ b r r r r ",
"@ 1 &       k . + & & X a S a ` '   . . . . . . .                 & 1 ] + & & & 3 c [ r r r r r ",
"{ + k       & 1 ] + & X T } | ]  ...& & & k                       k . + & & &   * 4 e r r r r r ",
"^ N * * * * : 2 1 . X.1 1 1 1 1 X.& & & X E * * * * * * * * * * * * : E X & &   * 4 e r r r r r ",
"K B v 4 4 4 I o.T } O.+.# # w . X @.@.@.#.O U 4 4 4 4 4 4 4 4 4 8 9 9 O @.& & . ! 5 e r r r r r ",
"r 6 e e e e Z $.%.O > &.@ % . . E A o o o O d 6 e e e e e e e e t v u S @.& & . ~ 6 r r r r r r ",
"r r r r r r r b d l *.> O.X.X E *.l d ; d 9 m z 6 r r r r r r r e v u S @.& & . ^ 7 r r r r r r ",
"r r r r r r r 6 V v u O } & @.O u v Z 7 6 j U c e r r r r r r r e j 9 G @.& & . ^ 7 r r r r r r ",
"r r r r r r 7 z 9 u u S @.& } O u v Z r r e e e r r r r r r r r h 6 ; G @.& & . ^ 7 r r r r r r ",
"r r r r r 6 M m u u u S T X.O.> *.l n b r r r r r r r r r r r b ; s =.-.X & & . ^ 7 r r r r r r ",
"e e e e e t u o S S S a | ;.:.i > O A n Z e e e e e e e e e Z $.a G -.. & & & . ~ 6 r r r r r r ",
"4 4 4 4 4 9 q T } } T >.,.<.1.2.3.4.5.U 4 4 4 4 4 4 4 4 4 4 I = W X &   & & & . ! 5 e r r r r r ",
"* * * * : > , 1 1 6.7.8.9.0.q.w.e.r.t.y.u.* * * * * * * * * * * * * * E X & &   * 4 e r r r r r ",
"i.i.i.i.p.a.s.d.d.f.g.h.j.k.l.z.x.j.c.v.b.i.i.i.i.i.p.n.  & | = I 4 4 m.#.X &   * 4 e r r r r r ",
"M.M.M.M.M.N.B.B.B.V.C.Z.A.l.S.D.A.A.Z.q.F.M.M.M.M.M.0.G.& X H.$.Z e e t m.E k   * 4 e r r r r r ",
"J.J.J.J.J.K.L.L.L.P.I.U.S.S.S.S.S.S.U.I.P.J.J.K.L.Y.T.G.Q o.$.b r r r e 4 *     * 4 e r r r r r ",
"R.R.R.R.R.R.R.R.R.R.S.S.S.S.S.S.S.S.S.S.R.R.R.U.E.q.W.Q.: I Z r r r r e 4 *     * 4 e r r r r r ",
"S.S.S.S.S.S.S.S.S.S.S.S.S.S.S.!.~.S.S.S.S.S.S.D.z.w.2.{ E v e r r r r e 4 *     * 4 e r r r r r ",
"S.S.S.S.S.S.S.S.S.S.S.S.S.S.^./.(.~.S.S.S.S.S.A.x.e.3.).=.M 6 r r r r e 4 *     * 4 e r r r r r ",
"S.S.S.S.S.S.S.S.S.S.S.S._.^.`.'.].!.S.S.S.S.S.A.j.[.} G s 7 r r r r r e 4 *     * 4 e r r r 6 e ",
"S.S.S.S.S.S.S.S.S.S.S._.{.}.|. X.X!.S.S.S.S.S.A.j.8.XXo ; 7 r r r r r e v * k & : I e r r h s U ",
"S.S.S.S.S.S.S.S.S.S.S.`. X.X|. X.X!.S.S.S.S.S.A.j.8.XXG g z 6 r r r r 6 B N + 1 2 P D r r 7 ; O ",
"S.S.S.S.S.S.S.S.S.S.S.`. X.X|.{.}.!.S.S.S.S.S.D.oXOX+X@Xu U e r r r r r K J H ] 1 L b 6 r 6 d O ",
"S.S.S.S.S.S.S.S.S.S.S.`. X.X!._.^.S.S.S.S.S.S.S.Z.#X$X%Xu v e r r h r r 7 d H.& . T F M 6 j 9 u ",
"S.S.S.S.S.S.S.S.S.S.S.`. X.X!.S.S.S.S.S.S.S.S.S.R.J.&X*X*.8 e r 6 s =Xr 7 ; o T & T G g d 9 u u ",
"S.S.S.S.S.S.S.S.S.S.S._.{.}.!.S.S.S.S.S.S.S.S.S.R.J.-XQ.* 4 e r e 9 ; 7 7 ; o @.. & a O y u u u ",
"S.S.S.S.S.S.S.S.S.S.S.S._.^.S.S.S.S.S.S.S.S.S.S.R.J.M.i.* 4 e r e l ; 7 7 ; o }  .w & f 9 0 0 0 ",
"S.S.S.S.S.S.S.S.S.S.S.S.S.S.S.S.S.S.S.S.S.S.S.S.R.J.M.i.* 4 e r e U m z r ; o } 1 # p 2 3 * : : ",
"S.S.S.S.S.S.S.S.S.S.S.S.S.S.S.S.S.S.S.S.S.S.S.S.R.J.M.i.* 4 e r e v y U Z ; o } 1 # @ 1 & k . + ",
"S.S.S.S.S.S.S.S.S.S.S.S.S.S.S.S.S.S.S.S.S.S.S.S.R.J.M.i.* 4 e r e v y U Z ; o } 1 +.i . k & 1 @ ",
"S.S.S.S.S.S.S.S.S.S.S.S.S.S.S.S.S.S.S.S.S.S.S.S.R.J.M.i.* 4 e r e U m z r ; o T X.O.> : * 3 2 % ",
"S.S.S.S.S.S.S.S.S.S.S.S.S.S.S.S.S.S.S.S.S.S.S.S.R.J.M.i.* 4 e r e l ; 7 7 ; o @.& } O 9 0 9 f T ",
"S.S.S.S.S.S.S.S.S.S.S.S.S.S.S.S.S.S.S.S.S.S.S.S.R.J.M.i.* 4 e r e 9 ; 7 7 ; G } & @.S u O y O S ",
"S.S.S.S.S.S.S.S.S.S.S.S.S.S.S.S.S.S.S.S.S.S.S.S.R.J.M.i.* 4 e r 6 s =Xr 7 ;X:XO.X.T G g ; ; m u ",
"S.S.S.S.S.S.S.S.S.S.S.S.S.S.S.S.S.S.S.S.S.S.S.S.R.J.M.i.* 4 e r r h r r 7 >X,X@ 1 } F M 7 7 z l ",
"S.S.S.S.S.S.S.S.S.S.S.S.S.S.S.S.S.S.S.S.S.S.S.S.R.J.M.i.* 4 e r r r r r K ^ { @ % L b 6 r r 6 e ",
"S.S.S.S.S.S.S.S.S.S.S.S.S.S.S.S.S.S.S.S.S.S.S.S.R.J.M.i.* 4 e r r r r 6 B N + 1 2 P D r r r r r ",
"S.S.S.S.S.S.S.S.S.S.S.S.S.S.S.S.S.S.S.S.S.S.S.S.R.J.M.i.* 4 e r r r r e v <Xk & 3 I e r r r r r "
};
