/* XPM */
static char *_b5aedd61766438d994dd25a7e43ace5oP05K7Llv3kXGC5l[] = {
/* columns rows colors chars-per-pixel */
"48 48 237 2 ",
"   c #585652",
".  c #595854",
"X  c #686868",
"o  c #696A6A",
"O  c #595753",
"+  c #575551",
"@  c #585551",
"#  c #4D4B48",
"$  c #43413F",
"%  c #676868",
"&  c #686969",
"*  c #61615F",
"=  c #60605E",
"-  c #605F5D",
";  c #52504D",
":  c #4E4C49",
">  c #5B5956",
",  c #6A6A6A",
"<  c #6B6C6C",
"1  c #6C6C6D",
"2  c #6A6A6B",
"3  c #5A5854",
"4  c #585653",
"5  c #454341",
"6  c #42403E",
"7  c #54524F",
"8  c #565450",
"9  c #55534F",
"0  c #444240",
"q  c #4E4C4A",
"w  c #5A5855",
"e  c #676867",
"r  c #7F7B81",
"t  c #817C84",
"y  c #666766",
"u  c #4B4946",
"i  c #413F3D",
"p  c #44423F",
"a  c #54514E",
"s  c #5F5E5C",
"d  c #767478",
"f  c #777579",
"g  c #827D85",
"h  c #837E86",
"j  c #757377",
"k  c #6A6B6B",
"l  c #626160",
"z  c #575653",
"x  c #4C4947",
"c  c #43413E",
"v  c #474543",
"b  c #4F4D4A",
"n  c #656564",
"m  c #847F87",
"M  c #847E87",
"N  c #6D6D6F",
"B  c #5C5A57",
"V  c #696B6B",
"C  c #61605E",
"Z  c #7C797F",
"A  c #78757A",
"S  c #6F6F71",
"D  c #585651",
"F  c #747376",
"G  c #817D84",
"H  c #686A69",
"J  c #77757A",
"K  c #6A6B6C",
"L  c #6B6B6C",
"P  c #6E6E6F",
"I  c #696A6B",
"U  c #706F71",
"Y  c #726F72",
"T  c #6C696B",
"R  c #62615F",
"E  c #585753",
"W  c #5F5F5D",
"Q  c DimGray",
"!  c #7D797F",
"~  c #7F7B82",
"^  c #5E5D5B",
"/  c #55534E",
"(  c #5B5A56",
")  c #5C5956",
"_  c #4E4D4A",
"`  c #4E4C48",
"'  c #575553",
"]  c #4C4A47",
"[  c #4C4B47",
"{  c #54524E",
"}  c #595752",
"|  c #5B5955",
" . c #5E5C59",
".. c #6C6D6E",
"X. c #646362",
"o. c #5E5E5B",
"O. c #666767",
"+. c #737174",
"@. c #807B82",
"#. c #817C83",
"$. c #827D84",
"%. c #807B83",
"&. c #6B6A6B",
"*. c #5C5B58",
"=. c #767479",
"-. c #837E87",
";. c #6B6C6D",
":. c #757376",
">. c #6D6D6E",
",. c #4E4B49",
"<. c #454240",
"1. c #747276",
"2. c #626260",
"3. c #4F4C4A",
"4. c #4A5248",
"5. c #475847",
"6. c #656665",
"7. c #575552",
"8. c #565350",
"9. c #565651",
"0. c #555650",
"q. c #444440",
"w. c #475C49",
"e. c #4C7252",
"r. c #434740",
"t. c #4C4D48",
"y. c #585A54",
"u. c #656966",
"i. c #676968",
"p. c #686968",
"a. c #5A5754",
"s. c #585552",
"d. c #464241",
"f. c #44403F",
"g. c #44413F",
"h. c #433F3F",
"j. c #485748",
"k. c #4C6F51",
"l. c #496B4E",
"z. c #537D5A",
"x. c #5B8B63",
"c. c #4B6F51",
"v. c #4B6D50",
"b. c #4C6E51",
"n. c #4D7052",
"m. c #536353",
"M. c #5A5654",
"N. c #5B5855",
"B. c #5C5957",
"V. c #62605F",
"C. c #595653",
"Z. c #516351",
"A. c #506251",
"S. c #475948",
"D. c #465847",
"F. c #465747",
"G. c #4D6C51",
"H. c #55825C",
"J. c #54805B",
"K. c #598861",
"L. c #5E8F65",
"P. c #54815B",
"I. c #54815C",
"U. c #537256",
"Y. c #516150",
"T. c #4D4C48",
"R. c #60615E",
"E. c #5B6D5E",
"W. c #566857",
"Q. c #4C7453",
"!. c #4D7553",
"~. c #56835D",
"^. c #5F9267",
"/. c #5F9167",
"(. c #5E9066",
"). c #5E9167",
"_. c #55835D",
"`. c #4C7452",
"'. c #4C7553",
"]. c #4B7051",
"[. c #424740",
"{. c #4C4E48",
"}. c #575852",
"|. c #565851",
" X c #565A51",
".X c #4D7152",
"XX c #5C8D64",
"oX c #5D8F65",
"OX c #5B8B62",
"+X c #4C6E50",
"@X c #5D9066",
"#X c #5D8F66",
"$X c #689864",
"%X c #719E63",
"&X c #609166",
"*X c #739F63",
"=X c #85AD60",
"-X c #659565",
";X c #729F63",
":X c #87AF60",
">X c #84AC60",
",X c #709E63",
"<X c #689764",
"1X c #619365",
"2X c #719E62",
"3X c #74A163",
"4X c #86AF61",
"5X c #699159",
"6X c #4E7553",
"7X c #7EA65F",
"8X c #85AE60",
"9X c #84AD61",
"0X c #629366",
"qX c #5F9066",
"wX c #5F9065",
"eX c #688F5A",
"rX c #688F58",
"tX c #6B9259",
"yX c #789F5C",
"uX c #678F59",
"iX c #609266",
"pX c #4B7354",
"aX c #678E59",
"sX c #84AC5F",
"dX c #83AA5F",
"fX c #668D58",
"gX c #5D8E65",
"hX c #56815B",
"jX c #4F7551",
"kX c #689765",
"lX c #619266",
"zX c #5E9166",
"xX c #80AA61",
"cX c #55815C",
"vX c #4D7453",
"bX c #5C8E64",
"nX c white",
/* pixels */
"          . X o X O + @                                           O # $ + O O       O           ",
"          . % o & * = - O                                           ; # # # : +   + : ;         ",
". . . . . > , < < 1 1 2 > . . . . . . . . . . . . . . . . . . . . . 3 4 5 6 $ 7 8 9 0 q w . . . ",
"e e e e e o r t t t t r o e e e e e e e e e e e e e e e e e % X X X X y   u i 0 p 5 a s & e e e ",
"d d d d d f g h h h h g f d d d d d d d d d d d d d d d d j k o o o o & l z x c v b s n k j d d ",
"m m m m m M h h h h h h M m m m m m m m m m m m m m m m m g N < < o o o k * 8 5 b B & k N g m m ",
"h h h h h h M h h h h h h h h h h h h h h h h h h h h h h h t t r k o o V C + 8 s & & j g h h h ",
"h h h h h g f Z h h h h h h h h h h h h h h h h h h h h h h h h g A S o k C D D C k & d m h h h ",
"h h h h g r k F G t g h h h h h h h h h h h h h h h h h h h h h h g j & & s 8 + C V H j g h h h ",
"m m m m J K k K < L J m m m M h h h h h h M m m m m m m m m m m g P L & B b 5 8 * k I K P g m m ",
"d d d d U & * n o o S d d d f g h h h h g f d d d d d d d d d Y T R = s b v c u z * C = R T Y d ",
"e e e e % y E W & o o & e e Q ! ~ ~ ~ ~ ! Q e e e e e e e e % ^ / + D 8 5 p 0 $ #   D + 8 / ^ % ",
". . . . 3 3   O > & k & ( 3 3 > ) ) ) ) > 3 . . . . . . . . w q 0 8 D + 8 8 8 8 + D   # $ $ _ w ",
"        ; ` +   O - C s : ;                                   ; : s = = = = = = = = C ' ] [ ;   ",
". . . w q 0 8 + 8 8 8 { 0 : }       . . . . . . . . . . . . . |  .k 1 1 1 1 1 1 1 1 ..X.) B | . ",
"e e e % o.9   # $ 0 p 5 7 + D @ + O y % e e e e e e e e e e O.+.@.#.t t t G $.$.G t t %.~ @.+.y ",
"d d d f &.- * ' u 6 v : + *.C = = * & U =.d d d d d d d d d d ! -.h h h M ! d d ! M h h h -.! d ",
"m m m m A < k l   5 : O O * k ;.1 ;.o j g M m m m m m m m m m h h h g t G :.& & :.G t g h h h m ",
"h h h h g ~ < & y   + . y & < r t r k o >.t h h h h h h h h h h h M f k L o & & o L k f M h h h ",
"h h h h ! j k o X 3   3 X o < t h g f d f g h h h h h h h h h h h h Z d d d d d d d d Z h h h h ",
"h h h g :.& o o X . +   y & < r g h M m M h h h h h h h h h h h h h h m m m m m m m m h h h h h ",
"m m g P K I V k & | ,.<.  l k K J m m m m m h h h h h h h h h h m m m m m m m m m m m m m m m m ",
"d d 1.2.= C C C s 3.4.5.[ ' l & U d d d d d ! -.h h h h h h h ! d d d d d d d d d d d d d d d d ",
"e e 6.7.8 8 8.9.0.q.w.e.r.t.y.u.i.e e e e O.+.@.~ ~ ~ ~ %.t G :.& H p.e e e e e e e e e e e e e ",
"a.a.s.d.f.g.h.j.k.l.z.x.c.v.b.n.m.M.a.a.a.a.N.B.) ) ) ) X...1 L I 2 V.C.a.a.a.a.a.a.a.a.a.a.a.a.",
"Z.Z.A.S.D.D.F.G.H.J.K.L.H.P.P.I.U.Z.Z.Z.Z.Z.Z.Z.Z.Z.Y.T.' C = C R.E.W.Z.Z.Z.Z.Z.Z.Z.Z.Z.Z.Z.Z.Z.",
"Q.Q.Q.!.!.!.Q.~.^./.(.(.)././.^._.`.Q.Q.Q.Q.Q.Q.Q.'.].[.{.}.|.|. X.X`.Q.Q.Q.Q.Q.Q.Q.Q.Q.Q.Q.Q.Q.",
"XXXXXXXXXXXXXXoX(.(.(.(.(.(.(.(.oXXXXXXXXXXXXXXXXXXXOXc.v.b.b.+X.Xx.XXXXXXXXXXXXXXXXXXXXXXXXXXXX",
"(.(.(.(.(.(.(.(.(.(.(.(.(.(.(.(.(.(.(.(.(.(.(.(.(.(.oXH.P.P.P.P.H.oX(.(.(.(.(.(.(.(.(.(.(.(.(.(.",
"(.(.(.(.(.(.(.(.(.(.(.(.(.(.(.(.(.(.(.(.(.(.(.(.(.(.(.)././././.).(.(.(.(.(.(.(.(.(.(.(.(.(.(.(.",
"(.(.(.(.(.(.(.(.(.(.(.(.(.(.(.(.(.(.(.(.(.(.(.(.(.@X#X(.(.(.(.(.(.(.(.(.(.(.(.(.(.(.(.(.(.(.(.(.",
"(.(.(.(.(.(.(.(.(.(.(.(.(.(.(.(.(.(.(.(.(.(.(.(.@X$X%X&X(.(.(.(.(.(.(.(.(.(.(.(.(.(.(.(.(.(.(.(.",
"(.(.(.(.(.(.(.(.(.(.(.(.(.(.(.(.(.(.(.(.(.(.(.(.#X*X=X-X&X(.(.(.(.(.(.(.(.(.(.(.(.(.(.(.(.(.(.(.",
"(.(.(.(.(.(.(.(.(.#X@X(.(.(.(.(.(.(.(.(.(.(.(.(.#X;X:X>X,X#X(.@X#X(.(.(.(.(.(.(.(.(.(.(.(.(.(.(.",
"(.(.(.(.(.(.(.(.&X%X$X@X(.(.(.(.(.(.(.(.(.(.(.(.#X;X:X:X;X#X@X<X%X&X(.(.(.(.(.(.(.(.(.(.(.(.(.(.",
"(.(.(.(.(.(.(.(.1X=X*X#X(.(.(.(.(.(.(.(.(.(.(.(.#X,X>X:X2XXX&X3X=X1X(.(.(.(.(.(.(.(.(.(.(.(.(.(.",
"(.(.(.(.(.(.(.(.1X>X;X#X#X@X(.(.(.(.(.(.(.(.(.(.(.&X-X4X5X6X7X8X9X0X(.(.(.(.(.(.(.(.(.(.(.(.(.(.",
"(.(.(.(.(.(.(.(.1X>X;XqX%X$X@X(.(.(.(.(.(.(.(.(.(.(.wXeXrXtX=XyXuXwX(.(.(.(.(.(.(.(.(.(.(.(.(.(.",
"(.(.(.(.(.(.(.(.1X>X;XiX=X*X#X(.(.(.(.(.(.(.(.(.(.(.XXpXaXsXdXfXpXXX(.(.(.(.(.(.(.(.(.(.(.(.(.(.",
"(.(.(.(.(.(.(.(.1X=X*XiX>X;X#X(.(.(.(.(.(.(.(.(.(.(.(.gXhXjXjXhXgX(.(.(.(.(.(.(.(.(.(.(.(.(.(.(.",
"(.(.(.(.(.(.(.(.&X%XkXlX>X;X#X(.(.(.(.(.(.(.(.(.(.(.(.zXK.J.J.K.zX(.(.(.(.(.(.(.(.(.(.(.(.(.(.(.",
"(.(.(.(.(.(.(.(.(.#X@XlXxX,X#X(.(.(.(.(.(.(.(.(.(.(.(.(.(././.(.(.(.(.(.(.(.(.(.(.(.(.(.(.(.(.(.",
"(.(.(.(.(.(.(.(.(.(.(.(.lX&X(.(.(.(.(.(.(.(.(.(.(.(.(.(.(.(.(.(.(.).(.(.(.(.(.(.(.(.(.(.(.(.(.(.",
"(.(.(.(.(.(.(.(.(.(.(.(.(.(.(.(.(.(.(.(.(.(.(.(.(.(.(.(.(.(.(.(.oXcXK.zX(.(.(.(.(.(.(.(.(.(.(.(.",
"(.(.(.(.(.(.(.(.(.(.(.(.(.(.(.(.(.(.(.(.(.(.(.(.(.(.(.(.(.(.(.oXx.vXJ.gX(.(.(.(.(.(.(.(.(.(.(.(.",
"(.(.(.(.(.(.(.(.(.(.(.(.(.(.(.(.(.(.(.(.(.(.(.(.(.(.(.(.(.(.).cXvXXXJ.!.bX(.(.(.(.(.(.(.(.(.(.(.",
"(.(.(.(.(.(.(.(.(.(.(.(.(.(.(.(.(.(.(.(.(.(.(.(.(.(.(.(.(.(.(.K.J.cXJ.H.oX(.(.(.(.(.(.(.(.(.(.(.",
"(.(.(.(.(.(.(.(.(.(.(.(.(.(.(.(.(.(.(.(.(.(.(.(.(.(.(.(.(.(.(.zXgXe.J.^.(.(.(.(.(.(.(.(.(.(.(.(."
};
