/* XPM */
static char *b64880c4855a43298714208625da8008JFD3aCuqd1yuifaH[] = {
/* columns rows colors chars-per-pixel */
"48 48 194 2 ",
"   c #696B6B",
".  c #6A6B6B",
"X  c #686969",
"o  c #595753",
"O  c #60605E",
"+  c #696A6A",
"@  c #777579",
"#  c #858088",
"$  c #847F88",
"%  c #5B5955",
"&  c #4D4B48",
"*  c #413F3D",
"=  c #43413F",
"-  c #565450",
";  c #585652",
":  c #595854",
">  c #61605E",
",  c #605F5D",
"<  c #656564",
"1  c #676565",
"2  c #6E6A6C",
"3  c #5F5E5C",
"4  c #4F4D4A",
"5  c #4E4C49",
"6  c #575551",
"7  c #585551",
"8  c #585651",
"9  c #696A6B",
"0  c #61615F",
"q  c #444240",
"w  c #686A69",
"e  c #686968",
"r  c #676867",
"t  c #676868",
"y  c #5F5F5C",
"u  c #4C4A47",
"i  c #6B6A6B",
"p  c #767478",
"a  c #575653",
"s  c #4B4946",
"d  c #42403E",
"f  c #474543",
"g  c #6B6C6C",
"h  c #78757A",
"j  c #847F87",
"k  c #6C6C6D",
"l  c #6B6B6C",
"z  c #626160",
"x  c #464442",
"c  c #43413E",
"v  c #5C5A57",
"b  c #7F7B82",
"n  c #827D85",
"m  c #837E86",
"M  c #817C84",
"N  c #817D84",
"B  c #757376",
"V  c #666766",
"C  c #585653",
"Z  c #53514D",
"A  c #6A6B6C",
"S  c #757377",
"D  c #7D797F",
"F  c #6F6F71",
"G  c #686868",
"H  c #5A5854",
"J  c #52504D",
"K  c #4E4C4A",
"L  c #55534F",
"P  c #77757A",
"I  c #5A5855",
"U  c #6E6E6F",
"Y  c #847E87",
"T  c #62615F",
"R  c #6C696B",
"E  c #726F72",
"W  c #837E87",
"Q  c #454341",
"!  c #5D5C5A",
"~  c #686869",
"^  c #7E7A81",
"/  c #817C83",
"(  c #807B82",
")  c #737174",
"_  c #666767",
"`  c #4C4947",
"'  c #494745",
"]  c #78767A",
"[  c #5E5C59",
"{  c #5B5956",
"}  c #575553",
"|  c #5E5D5B",
" . c #6D6A6C",
".. c #4E4D4A",
"X. c #454340",
"o. c #54524E",
"O. c #44423F",
"+. c #595752",
"@. c #55534E",
"#. c #656665",
"$. c #6E6B6D",
"%. c #6B6C6D",
"&. c #7F7B81",
"*. c #585753",
"=. c DimGray",
"-. c #6D6D6F",
";. c #706F71",
":. c #6C6D6D",
">. c #626260",
",. c #666665",
"<. c #6D6D6E",
"1. c #747276",
"2. c #6E6E70",
"3. c #747275",
"4. c #6C6D6E",
"5. c #595754",
"6. c #575651",
"7. c #565751",
"8. c #555550",
"9. c #565551",
"0. c #676A68",
"q. c #656966",
"w. c #585953",
"e. c #565851",
"r. c #5A5754",
"t. c #526251",
"y. c #4C6F51",
"u. c #485748",
"i. c #454141",
"p. c #585552",
"a. c #5A5654",
"s. c #536353",
"d. c #4D7052",
"f. c #4C6E51",
"g. c #516351",
"h. c #4B7352",
"j. c #54805B",
"k. c #4D6C51",
"l. c #475848",
"z. c #506251",
"x. c #537256",
"c. c #54815C",
"v. c #54815B",
"b. c #4C7453",
"n. c #5D8F65",
"m. c #56835D",
"M. c #4C7452",
"N. c #55835D",
"B. c #5F9267",
"V. c #5F9167",
"C. c #767479",
"Z. c #5C8D64",
"A. c #5E9066",
"S. c #5C5956",
"D. c #676968",
"F. c #585A54",
"G. c #5C5B58",
"H. c #4C4D48",
"J. c #4B6D50",
"K. c #5B5A56",
"L. c #54524F",
"P. c #4C4B47",
"I. c #434740",
"U. c #4B6F51",
"Y. c #55825C",
"T. c #5E9167",
"R. c #454240",
"E. c #475847",
"W. c #4C7252",
"Q. c #5B8B63",
"!. c #5E8F65",
"~. c #4E4B49",
"^. c #4A5248",
"/. c #475C49",
"(. c #537D5A",
"). c #598861",
"_. c #4F4C4A",
"`. c #444440",
"'. c #496B4E",
"]. c #555650",
"[. c #7C797F",
"{. c #747376",
"}. c #5F5F5D",
"|. c #565651",
" X c #565350",
".X c #433F3F",
"XX c #465747",
"oX c #4E4C48",
"OX c #44413F",
"+X c #465847",
"@X c #4D7553",
"#X c #5E5E5B",
"$X c #827D84",
"%X c white",
/* pixels */
"  . X o O   + + .       + @ # $ $ $ $ $ $ $ $ $ # @ +         . X % & * * * = - ; : X .         ",
"> > , ; O   + < O O > > O 1 2 2 2 2 2 2 2 2 2 2 2 1 O > > > > > 3 4 & & & & 5 6 ; o , > > > > > ",
"7 7 8 7 >   9 0 o o ; 7 7 6 6 6 6 6 6 6 6 6 6 6 6 6 7 7 7 7 7 8 - q & 6 6 ; o ; 6 - 6 7 7 7 7 7 ",
"7 7 7 6 , + w e r t y 6 7 7 7 7 7 7 7 7 7 7 7 7 7 7 7 7 7 7 7 7 6 - u = = 5 o o 5 q - 8 7 7 7 7 ",
"> > O , i @ p p p @ i , O O O O O O O O O O O O O O O O O > > O > 0 a s d f & & & 4 3 > O O O O ",
"    . g h j j j j j h g k k k k k k k k k k k k k k k k l 9       . z ; x = d c 4 v X l k k k k ",
"  + g b n m m m m m n M M M M M M M M M M M M M M M M N B X X + + + X V C u = Z 3 X e B N M M M ",
"O < A S D m m m m m m m m m m m m m m m m m m m m m m m D p p F + + + G H J K 3 < A B D m m m m ",
"L 3 X e B n m m m m m m m m m m m m m m m m m m m m m m m j j P . + + G : ; I X + g N m m m m m ",
"= 4 v X l U n j Y m m m m m m m m m m m m m m m m m m m m m m n b g + X I ; : G + g N m m m m m ",
"d f 4 3 O T R E P n m m m m m m m m m m m m m m m m m m m m W D S A < 3 K J H G + . S D W m m m ",
"d = Q - 8 6 L ! ~ ^ M M M n m m m m m n M M M M M M M M M / ( ) _ X 3 Z = u C V G t _ ) ( / M M ",
"* ` - 6 8 - Q q ' X k k g ] # j j j # ] g k k k k k k k k . [ % : I K c d d Q ; H : H { [ . k k ",
"u } 0 > > 3 4 f q | > O O 1 2 2 2  .2 1 O O O O O O O O O 3 5 J ; ; J & & & 5 6 ; 6 5 & ..3 O O ",
"H z .   . X v 4 X.o.- - - L L L - 6 6 6 7 7 7 7 7 7 7 7 8 - q K I : H I I I I : H ; Q = Q - 8 7 ",
"G X + + + X X 3 o.Q O.= = = = = 5 +.8 7 7 7 7 7 7 7 7 7 7 6 @.| t r r r r r r r r #.6 L L 6 7 7 ",
"+ + + + F S l > - O.f & & & & & J o , > O O O O O O O O O T R E p p p p p p p p p S $.2 R T O O ",
"+ + + . h n U T - = & o H I H o o { X   . %.k k k k k k k U n j j j j Y n N n Y j j j j n U k k ",
"+ + g &.n m n R @.= & H V G V *., =.+ + . &.M M M M M M M M m m m Y j n -.g -.n j Y m m m M M M ",
"+ + g M m m j E | K J H G + X 0 O 0 X ;.h n m m m m m m m m m m n @ p S . + . S p @ n m m m m m ",
"+ . -.M m m j p t I ; : G + + :.>.H ,.B n m m m m m m m m m m m M <.A l g g g l A <.M m m m m m ",
"X S n m m m j p r : ; : G + . b 1.#.H >.2.n m m m m m m m m m m m M M M M M M M M M m m m m m m ",
"X p j m m m j p r : ; : t ;.P n D 3.>.O >.3.D m m m m m m m m m m m m m m m m m m m m m m m m m ",
"X p j m m m j p r : ; : r p j m m N 4.O *.V p j m m m m m m M M M M M M M M M M M M M M M M M M ",
"X p j m m m j p r : ; : r p j m m M k O o t @ # j j j j j n -.g g k k k k k k k k k k k k k k k ",
"X p j m m m j p r : ; : r p j m m M %.< O O 1 2 2 2 $.S p S . + X 0 O O O O O O O O O O O O O O ",
"X p j m m m j p r : ; : r p j m m M g + X 5.6.7.7.8.9.#.r r G 0.q.w.e.e.e.e.e.e.e.e.e.e.e.e.e.e.",
"X p j m m m j p r : ; : r p j m m M l + G r.t.y.y.u.i.p.r.r.a.s.d.f.f.f.f.f.f.f.f.f.f.f.f.f.f.f.",
"X p j m m m j p r : ; : r p j m m n P ;.t r.g.h.j.k.l.z.g.g.g.x.c.v.v.v.v.v.v.v.v.v.v.v.v.v.v.v.",
"X p j m m m Y @ =.H ; : r p Y M n m j p r r.g.b.n.m.b.b.b.b.M.N.B.V.V.V.V.V.V.V.V.V.V.V.V.V.V.V.",
"X p j m m m m n D { ; : r C.n <.@ Y j p r r.g.b.Z.n.Z.Z.Z.Z.Z.n.A.A.A.A.A.A.A.A.A.A.A.A.A.A.A.A.",
"X p j m m m m m b S.; : t ;.S + p j j p r r.g.b.Z.A.A.A.A.A.A.A.A.A.A.A.A.A.A.A.A.A.A.A.A.A.A.A.",
"X p j m m m m m b S.; : V X + . @ Y j p r r.g.b.Z.A.A.A.A.A.A.A.A.A.A.A.A.A.A.A.A.A.A.A.A.A.A.A.",
"X p j m m m m m b S.; ; o 0 %.&.n m j p r a.g.M.Z.A.A.A.A.A.A.A.A.A.A.A.A.A.A.A.A.A.A.A.A.A.A.A.",
"X p j m m m m m b S.; ; 6 O k M m n P ;.D.s.x.N.n.A.A.A.A.A.A.A.A.A.A.A.A.A.A.A.A.A.A.A.A.A.A.A.",
"X p j m m m m n D { ; ; 7 O %.&.M &.A X q.d.c.B.A.A.A.A.A.A.A.A.A.A.A.A.A.A.A.A.A.A.A.A.A.A.A.A.",
"X p j m m m Y @ =.H ; +.8 > . g g g . z F.f.v.V.A.A.A.A.A.A.A.A.A.A.A.A.A.A.A.A.A.A.A.A.A.A.A.A.",
"X p j m m m j p r H J 5 6 G.0 X + X z } H.J.v.V.A.A.A.A.A.A.A.A.A.A.A.A.A.A.A.A.A.A.A.A.A.A.A.A.",
"l @ Y m m m j p r K.5 q L.6 o V G V ; P.I.U.Y.T.A.A.A.A.A.A.A.A.A.A.A.A.A.A.A.A.A.A.A.A.A.A.A.A.",
"M n m m m m j p X X 3 o.Q 5 o : H ; R.E.W.Q.!.A.A.A.A.A.A.A.A.A.A.A.A.A.A.A.A.A.A.A.A.A.A.A.A.A.",
"m m m m m n P F + . > - O.f 5 6 ; 6 ~.^./.(.).A.A.A.A.A.A.A.A.A.A.A.A.A.A.A.A.A.A.A.A.A.A.A.A.A.",
"m m m m m M l + + X , - q d Q ; H : % _.`.'.j.V.A.A.A.A.A.A.A.A.A.A.A.A.A.A.A.A.A.A.A.A.A.A.A.A.",
"m m m m m N g + X { o - = s ; V G G X 3 ].y.Y.B.A.A.A.A.A.A.A.A.A.A.A.A.A.A.A.A.A.A.A.A.A.A.A.A.",
"m m m m [.{.A < }.o ; 6 & } z X + + . > |.u.k.m.n.A.A.A.A.A.A.A.A.A.A.A.A.A.A.A.A.A.A.A.A.A.A.A.",
"M n m Y @ . . 0 *.; 6 - ; 0 . g . +   >  X.XXXb.Z.A.A.A.A.A.A.A.A.A.A.A.A.A.A.A.A.A.A.A.A.A.A.A.",
"l @ Y m n &.A X V H oXq L , g b S X 9 > - OX+X@XZ.A.A.A.A.A.A.A.A.A.A.A.A.A.A.A.A.A.A.A.A.A.A.A.",
"X p j m m n P ;.t H J K #Xi h n D B l > - OX+X@XZ.A.A.A.A.A.A.A.A.A.A.A.A.A.A.A.A.A.A.A.A.A.A.A.",
"X p j m m m $ p r : ; I t @ j m m $Xk O - OX+X@XZ.A.A.A.A.A.A.A.A.A.A.A.A.A.A.A.A.A.A.A.A.A.A.A."
};
