/* XPM */
static char *_631216133577[] = {
/* columns rows colors chars-per-pixel */
"48 48 151 2 ",
"   c #3C543C",
".  c #345B3D",
"X  c #3C593E",
"o  c #3A643F",
"O  c #44553E",
"+  c #4B513E",
"@  c #456F3F",
"#  c #375E40",
"$  c #3B5E40",
"%  c #356442",
"&  c #3B6444",
"*  c #366946",
"=  c #3C6D46",
"-  c #356C48",
";  c #3B6C48",
":  c #3C744D",
">  c #3E7C52",
",  c #465740",
"<  c #4D5441",
"1  c #435B41",
"2  c #4B5A43",
"3  c #515644",
"4  c #535A46",
"5  c #565C49",
"6  c #595E4A",
"7  c #436346",
"8  c #466448",
"9  c #426C4A",
"0  c #4D694C",
"q  c #526546",
"w  c #5D6E46",
"e  c #55614A",
"r  c #5C624D",
"t  c #55684F",
"y  c #42774A",
"u  c #447A4B",
"i  c #5F7747",
"p  c #59784D",
"a  c #5F6550",
"s  c #5D6A53",
"d  c #5E6F58",
"f  c #447650",
"g  c #4E7351",
"h  c #417D53",
"j  c #4E7D56",
"k  c #557555",
"l  c #597153",
"z  c #537A56",
"x  c #587A51",
"c  c #5B7459",
"v  c #527A58",
"b  c #5B7B5B",
"n  c #61744B",
"m  c #616652",
"M  c #636A55",
"N  c #676D58",
"B  c #686F59",
"V  c #64755B",
"C  c #6C725D",
"Z  c #697B5F",
"A  c #6F7560",
"S  c #637E60",
"D  c #687E64",
"F  c #717761",
"G  c #747A64",
"H  c #777D69",
"J  c #797E69",
"K  c #58823F",
"L  c #5E814E",
"P  c #538A4E",
"I  c #5B904E",
"U  c #428356",
"Y  c #4A8653",
"T  c #488857",
"R  c #448658",
"E  c #4C855B",
"W  c #468C5C",
"Q  c #498E5E",
"!  c #548552",
"~  c #53865C",
"^  c #5B835F",
"/  c #528D5D",
"(  c #4A905F",
")  c #5C9957",
"_  c #50945D",
"`  c #599059",
"'  c #53995F",
"]  c #589C5E",
"[  c #60844D",
"{  c #63944A",
"}  c #6C944D",
"|  c #658A52",
" . c #6A845F",
".. c #619C5A",
"X. c #5FA05C",
"o. c #6EA24F",
"O. c #6CA454",
"+. c #6EAA57",
"@. c #63A35A",
"#. c #6DA958",
"$. c #75AD55",
"%. c #7AAD58",
"&. c #4D8E60",
"*. c #568760",
"=. c #5B8461",
"-. c #528E61",
";. c #5D8A64",
":. c #4B9462",
">. c #519364",
",. c #589266",
"<. c #529860",
"1. c #5B9A63",
"2. c #5C9369",
"3. c #648163",
"4. c #688767",
"5. c #628B66",
"6. c #74846A",
"7. c #7C836D",
"8. c #65936D",
"9. c #6D986B",
"0. c #7E8571",
"q. c #7D8C74",
"w. c #759072",
"e. c #769978",
"r. c #7D997C",
"t. c #81AC5F",
"y. c #818772",
"u. c #848A75",
"i. c #868B79",
"p. c #898E7B",
"a. c #85957D",
"s. c #8C917E",
"d. c #8E9481",
"f. c #8C9B82",
"g. c #919684",
"h. c #939886",
"j. c #969B8A",
"k. c #9A9E8E",
"l. c #9B9F90",
"z. c #8BA481",
"x. c #9DA292",
"c. c #9CAA90",
"v. c #A0A596",
"b. c #A3A798",
"n. c #A5AA9C",
"m. c #A8AC9F",
"M. c #AAAEA1",
"N. c #AEB1A6",
"B. c #B2B5AB",
"V. c #B6B9AF",
"C. c #BABCB3",
/* pixels */
":.:.:.:.:.:.:.:.:.:.:.:.:.:.:.:.:.:.:.:.:.:.:.:.:.:.:.:.:.:.:.:.:.:.:.:.:.:.:.:.:.:.:.:.:.:.:.:.",
":.:.:.:.:.:.:.:.:.:.:.:.:.:.:.:.:.:.:.:.:.:.:.:.:.:.:.:.:.:.:.:.:.:.W R :.:.:.:.:.:.:.:.:.:.:.:.",
":.:.:.:.:.:.:.:.:.:.:.:.:.:.:.:.:.:.:.:.:.:.:.:.:.:.:.:.:.:.:.:.:.W U > W :.:.:.:.:.:.:.:.:.:.:.",
":.:.:.:.:.:.:.:.:.:.:.:.:.:.:.:.:.:.:.:.:.:.:.:.:.:.:.:.:.:.:.:.:.> U W > R :.:.:.:.:.:.:.:.:.:.",
":.:.:.:.:.:.:.:.:.:.:.:.:.:.:.:.:.:.:.:.:.:.:.:.:.:.:.:.:.:.:.:.( U U R U Q :.:.:.:.:.:.:.:.:.:.",
":.:.:.:.:.:.:.:.:.:.:.:.:.:.:.:.:.:.:.:.:.:.:.:.:.:.:.:.:.:.:.:.:.:.R > ( :.:.:.:.:.:.:.:.:.:.:.",
":.:.:.:.:.:.:.:.:.:.:.:.:.:.:.:.:.:.:.:.:.:.:.:.:.:.:.:.:.:.:.:.:.:.:.Q :.:.:.:.:.:.:.:.:.:.:.:.",
":.:.:.:.:.:.:.:.:.:.:.:.:.:.:.:.:.:.:.:.:.:.:.:.:.:.:.:.:.:.:.:.:.:.:.:.:.:.:.:.:.:.:.:.:.:.:.:.",
":.:.:.:.:.:.:.:.:.:.:.:.:.:.:.:.:.:.:.:.&.&.&.-.:.:.( _ ( :.:.:.:.:.:.:.:.:.:.:.:.:.:.:.:.:.:.:.",
":.:.:.:.:.:.:.:.:.:.:.:.:.:.:.:.:.:.>.-.=.V S D S ^ z | ` :.:.:.:.:.:.:.:.:.:.:.:.:.:.:.:.:.:.:.",
":.:.:.:.:.:.:.:.:.:.:.:.:.:.:.:.:.>.;.4.6.0.p.g.i.6.V n L ` <.:.:.:.:.:.:.:.:.:.:.:.:.:.:.:.:.:.",
":.:.:.:.:.:.:.:.:.:.:.<.:.:.:.:.:.-.4.q.d.x.M.B.x.d.G r w [ / :.:.' :.:.:.:.:.:.:.:.:.:.:.:.:.:.",
":.:.:.:.:.:.:.:.:.:.@.+.<.:.:.:.-.;.6.g.m.N.B.M.x.d.7.m 4 q z E _ O.@.:.:.:.:.:.:.:.:.:.:.:.:.:.",
":.:.:.:.:.:.:.:.:.:.@.%.<.:.&.E v c 7.j.n.b.l.g.u.7.H m 6 e l k x } ) :.:.:.:.:.:.:.:.:.:.:.:.:.",
":.:.:.:.:.:.:.:.:.:.@.$.1.2.5.S s a H d.j.p.i.7.C N M r a C C m r i ! ( :.:.:.:.:.:.:.:.:.:.:.:.",
":.:.:.:.:.:.:.:.:.:.@.%.9.r.z.u.G B H u.d.g.g.d.F a 4 r C 7.7.G r q 9 > ( :.:.:.:.:.:.:.:.:.:.:.",
":.:.:.:.:.:.:.:.:.:...t.a.n.N.b.h.u.J y.g.j.k.h.y.M 5 m H u.J A m 3 $ % : W &.:.:.:.:.:.:.:.:.:.",
":.:.:.:.:.:.:.:.:.&...t.c.B.C.B.b.d.7.y.j.b.b.k.p.B 6 M H y.F N 6 3 O . * : R Q :.:.:.:.:.:.:.:.",
":.:.:.:.:.:.:.:.:.&.`  .a.n.b.k.d.u.G u.b.N.N.m.h.G a N F G B M m 3 O   $ % ; U W :.:.:.:.:.:.:.",
":.:.:.:.:.:.:.:.:.*.z n q.s.p.y.7.H A u.n.B.B.m.g.G a M B C N M r 3 + + 1 X $ : R :.:.:.:.:.:.:.",
":.:.:.:.:.:.:.:.&.b S F 7.7.7.G G H A u.l.M.m.k.i.C r m m M N m 6 4 3 < 3 ,   % > W :.:.:.:.:.:.",
":.:.:.:.:.:.:.:.,.w.f.j.s.i.p.s.p.7.H J p.k.h.u.F M 6 3 6 r 6 6 6 r 6 5 6 3 1 # : R :.:.:.:.:.:.",
":.] X.:.:.:.:.>.8.f.x.M.g.g.l.v.g.H B C J i.y.A M 6 3 3 3 6 6 6 a m a a m 6 2 # - U ( :.:.:.:.:.",
"<.@.#.1.:.:.:.2.e.n.N.x.g.k.n.x.i.F B B C F C M r 6 3 < + + 6 a M m a m M a <   % h ( :.:.:.:.:.",
"$.@.X.#.X.:.:.2.r.m.m.k.h.v.m.g.7.G 7.G N M m m m r 3 3 < 3 3 6 m a a m B M 6 $ * > :.:.:.:.:.:.",
"@.@.@.@.] :.:.2.a.n.x.g.k.n.v.u.y.g.v.j.u.J y.i.y.H N 6 4 6 m M m 5 6 M B M 6 2 & > W :.:.:.:.:.",
":.X.#.<.:.:.:.8.a.j.g.p.x.n.j.y.d.N.C.V.b.l.b.N.n.g.J N M F G F M 5 5 a m a 5 < 8 > ( :.:.:.:.:.",
":.<.<.:.:.:.:.8.u.y.y.p.x.j.p.y.l.V.V.N.b.n.B.V.B.k.y.B G u.i.y.F a 3 5 5 6 5 4 8 : ( :.:.:.:.:.",
":.:.:.:.:.:.:.8.G A H d.l.s.J 7.h.M.n.l.k.M.V.V.M.j.y.B G i.p.y.A a 3 3 4 4 5 4 8 : Q :.:.:.:.:.",
":.:.:.:.:.:.:.-.S s H g.h.y.B J i.g.s.i.p.n.B.B.x.i.F M B 0.7.G M 5 4 5 4 4 4 4 8 y &.:.:.:.:.:.",
":.:.:.:.:.:.:.E k s J d.s.J B H y.u.A B H j.m.b.s.H M a M C C M 6 4 6 a a 4 < 2 7 : Q :.:.:.:.:.",
":.:.:.:.:.:.:.&.~ c G y.7.F G s.j.g.A m C p.h.s.J B r a M C C m 4 3 6 a a 3 O 1 ; : :.:.:.:.:.:.",
":.:.:.:.:.:.:.:.:.*.3.Z B G d.v.M.x.G N F y.u.7.C a 6 m C G C m + + a r 6 2 X # - h ( :.:.:.:.:.",
":.:.:.:.:.:.:.:.:.&.v t a u.b.N.M.h.A G i.d.u.H M a 6 a C G C m m a r + 4 2 X % : R ( :.:.:.:.:.",
":.:.:.:.:.:.:.:.:.&.f 8 s i.n.M.x.s.G 0.j.l.d.u.F M m r B F B m r r + + 4 1 % * > ( :.:.:.:.:.:.",
":.:.:.:.:.:.:.:.:.:.U 9 d y.l.j.s.0.G i.M.n.x.d.7.F M 6 m C M a r e w + 2 7 9 y W :.:.:.:.:.:.:.",
":.:.:.:.:.:.:.:.:.:.W E S 0.d.i.7.7.7.h.N.V.M.j.u.H B 4 6 M M r 4 2 1 O & * y { ) :.:.:.:.:.:.:.",
":.:.:.:.:.:.:.:.:.:.( &.=.6.7.G C F 7.j.V.V.n.h.u.G N 4 3 r r q 8 O . o @ y Y o.@.:.:.:.:.:.:.:.",
":.:.:.:.:.:.:.:.:.:.:.>.,.5.D M m B 0.x.M.M.l.i.7.F M + + 5 4 8 X o . o K P _ $.@.:.:.:.:.:.:.:.",
":.:.:.:.:.:.:.:.:.:.:.:.:.~ z t 5 s q.j.x.l.d.7.F C m 3 + 4 + O o % % = { ) ' $.@.:.:.:.:.:.:.:.",
":.:.:.:.:.:.:.:.:.:.:.:.:.Q E g 0 t D q.d.d.0.A M M a < , , 1 $ % - - u o.@.<.X.] :.:.:.:.:.:.:.",
":.:.:.:.:.:.:.:.:.:.:.:.:.:.Q E h f j S 6.7.A M r e e , X $ $ ; : : > T #.X.:.:.:.:.:.:.:.:.:.:.",
":.:.:.:.:.:.:.:.:.:.:.:.:.:.:.:.Q W E ~ =.V M 6 2 2 1 % # & : > R W W ( ' :.:.:.:.:.:.:.:.:.:.:.",
":.:.:.:.:.:.:.:.:.:.:.:.:.:.:.:.:.:.:.:.-.| p 8 7 9 f h > h R W ( :.:.:.:.:.:.:.:.:.:.:.:.:.:.:.",
":.:.:.:.:.:.:.:.:.:.:.:.:.:.:.:.:.:.:.:.] O.I u : U &.:.:.:.:.:.:.:.:.:.:.:.:.:.:.:.:.:.:.:.:.:.",
":.:.:.:.:.:.:.:.:.:.:.:.:.:.:.:.:.:.:.X.#.] ..O._ &.:.:.:.:.:.:.:.:.:.:.:.:.:.:.:.:.:.:.:.:.:.:.",
":.:.:.:.:.:.:.:.:.:.:.:.:.:.:.:.:.:.:.] @.@.@.@.:.:.:.:.:.:.:.:.:.:.:.:.:.:.:.:.:.:.:.:.:.:.:.:.",
":.:.:.:.:.:.:.:.:.:.:.:.:.:.:.:.:.:.:.:.<.$.@.:.:.:.:.:.:.:.:.:.:.:.:.:.:.:.:.:.:.:.:.:.:.:.:.:."
};
