/* XPM */
static char *_631643561234[] = {
/* columns rows colors chars-per-pixel */
"48 48 155 2 ",
"   c #447946",
".  c #467B4C",
"X  c #487F4F",
"o  c #467C55",
"O  c #487D56",
"+  c #477C5F",
"@  c #487D5C",
"#  c #487766",
"$  c #497C64",
"%  c #4A756E",
"&  c #477868",
"*  c #4A7C6C",
"=  c #476E76",
"-  c #497674",
";  c #4B7A74",
":  c #49737B",
">  c #4B7A7C",
",  c #4A8D44",
"<  c #46804A",
"1  c #49874A",
"2  c #4A8C4D",
"3  c #4E944F",
"4  c #498456",
"5  c #4B8B53",
"6  c #4A845B",
"7  c #4D8C5B",
"8  c #4F9255",
"9  c #4F925B",
"0  c #50945E",
"q  c #659F5F",
"w  c #6BA35E",
"e  c #75AB5C",
"r  c #7CB059",
"t  c #4B8263",
"y  c #4E8E62",
"u  c #4F8B69",
"i  c #508E66",
"p  c #508D69",
"a  c #4F9163",
"s  c #509264",
"d  c #599762",
"f  c #5C9962",
"g  c #519369",
"h  c #4D8077",
"j  c #518876",
"k  c #52847D",
"l  c #528C7C",
"z  c #629D60",
"x  c #496D82",
"c  c #4B7586",
"v  c #4D7A83",
"b  c #4D738B",
"n  c #4E7A8B",
"m  c #4E7692",
"M  c #4F7896",
"N  c #4F759A",
"B  c #4F789F",
"V  c #517D9A",
"C  c #516BA9",
"Z  c #4F79A0",
"A  c #4F77A8",
"S  c #5172A6",
"D  c #517CA5",
"F  c #527DAD",
"G  c #546FB0",
"H  c #5371B2",
"J  c #557FB3",
"K  c #5879B6",
"L  c #547DBA",
"P  c #597FBB",
"I  c #5C67DF",
"U  c #5C6EDF",
"Y  c #5D73DF",
"T  c #5E7CDF",
"R  c #5D67E1",
"E  c #5D6BE1",
"W  c #5D72E1",
"Q  c #5E7BE3",
"!  c #5F7DE8",
"~  c #607FE9",
"^  c #538884",
"/  c #53878C",
"(  c #54898A",
")  c #558793",
"_  c #54859D",
"`  c #56899C",
"'  c #52969D",
"]  c #5483A2",
"[  c #5789A5",
"{  c #5583AB",
"}  c #5582B3",
"|  c #5880B6",
" . c #588FB2",
".. c #5583BD",
"X. c #5881BB",
"o. c #568EBC",
"O. c #5A95B5",
"+. c #5A91BA",
"@. c #589FB8",
"#. c #5AB1A5",
"$. c #5CAFB3",
"%. c #5786C3",
"&. c #578CC3",
"*. c #5A8CC3",
"=. c #5887C9",
"-. c #5A8CCC",
";. c #5A93C4",
":. c #5A94CC",
">. c #5D9CCB",
",. c #5B85D6",
"<. c #5B8DD3",
"1. c #5E83DE",
"2. c #5E8DDD",
"3. c #5C95D2",
"4. c #5D9BD5",
"5. c #5E92DD",
"6. c #5F9CDE",
"7. c #609EDF",
"8. c #5CA1CE",
"9. c #5EA9CF",
"0. c #5EA3D6",
"q. c #5FAAD3",
"w. c #5FA2DC",
"e. c #5FAADA",
"r. c #60A5DE",
"t. c #61ADDD",
"y. c #61B4DE",
"u. c #61BADE",
"i. c #5F9AE0",
"p. c #6183ED",
"a. c #6189EE",
"s. c #609DE1",
"d. c #6293EA",
"f. c #6385F3",
"g. c #628CF1",
"h. c #6493F5",
"j. c #659EF4",
"k. c #6597FC",
"l. c #669DFC",
"z. c #60A3E0",
"x. c #61ACE1",
"c. c #62B4E1",
"v. c #63BCE3",
"b. c #65BDEC",
"n. c #66A7F7",
"m. c #65AAF6",
"M. c #66A0FD",
"N. c #66AAF8",
"B. c #65B6F0",
"V. c #63C2DF",
"C. c #64C4E4",
"Z. c #64CBE4",
"A. c #65C3EB",
"S. c #65C9E9",
"D. c #65D2E3",
/* pixels */
"y a s a a s g g a a a a z z d a a s s a a a a a a a a a s s a a a a s s y y a a g a a a s a a a ",
"a a s s s 9 5 8 a a a a d d s a a a s a a a a a a g s a s a a s s s s s a a a a a a g a a a a a ",
"a a a a y 7 < 4 7 y 9 a a a a a a a a a a y a y a 9 y a a a a a 7 s y s a y a a a a a a a a a a ",
"a a a 6 t > S N ; . . 7 a a a 9 7 5 0 0 5 X o O O o o 4 9 0 9 4 o X o o o 4 5 9 5 < 6 y s a a a ",
"a s a o - { 4.:.{ b b v 6 5 6 ; > > @ @ ; n m m n m m c $ O * v m m m m m n ; $ - : 6 7 a a a a ",
"a a 7 4 c %.c.b.0.5.,.} h + > B L } : x A <.2.3.2.2.5...m = m %.2.<.2.<.5.=.F b F ..> t a a a a ",
"a s a 9 $ b 3.c.D.C.A.e.F D %.4.y.e.-.-.0.C.C.C.C.C.Z.y.3.-.3.y.C.Z.Z.Z.Z.u.0.3.e.x.H % , a a a ",
"a g a 9 * B 4.A.D.C.C.v.0.0.y.C.C.v.b.v.C.v.C.v.v.C.v.v.b.v.A.Z.Z.v.v.u.C.S.S.v.b.0.S ; 2 a a a ",
"a s a 4 n &.u.Z.C.6.6.x.v.C.C.v.y.y.Z.V.v.5.2.5.5.5.5.x.C.Z.Z.V.t.5.2.5.7.v.D.D.y.%.> 6 a g a a ",
"s s y O M 5.C.C.z.Y U T 2.5.5.1.T 1.5.5.1.Y W Y Y U U 1.1.5.5.2.T Y Y W U 5.v.D.6.G . , g a a a ",
"a s y o M 5.Z.v.5.E W p.T T T Q ! p.Y T ! p.p.f.p.p.p.! Q Y T Q p.p.p.! I 2.c.S.6.C . 3 g a a a ",
"s a y o M 2.Z.v.5.W p.h.p.! p.a.h.a.p.! a.l.M.M.l.M.l.h.a.! ! p.h.M.k.a.T 6.v.c.&.m t 9 a a a a ",
"a s s o M 5.Z.v.2.E p.M.l.k.k.l.l.l.j.k.l.l.l.l.l.l.l.j.l.j.k.k.l.M.f.W 2.x.y...c 6 s s a a a a ",
"a a 7 o N 5.Z.C.w.Q p.k.M.M.M.l.M.M.M.M.M.l.l.l.l.l.l.M.M.M.M.M.M.M.p.E i.v.y.L - 1 s s a a a a ",
"a s a O n -.v.Z.v.2.Q a.l.l.l.l.l.l.k.l.l.l.l.l.l.l.l.l.l.l.l.l.l.M.f.W 2.c.v.-.b 4 9 s a a a a ",
"a s s 7 ; Z 0.C.C.2.W p.j.M.l.l.l.l.l.l.l.l.l.l.l.l.l.l.l.l.l.l.M.M.g.! 1.x.Z.z.{ - y a g a a a ",
"s y 0 0 @ x -.b.V.5.Y ~ l.M.l.l.l.l.l.l.l.l.l.l.l.l.l.l.l.l.l.l.M.M.h.p.1.w.C.c.;.m 6 9 a a a a ",
"a s s 0 $ x 7.v.C.2.T p.l.M.l.l.l.l.M.l.l.l.l.l.l.l.l.l.l.l.l.l.l.l.h.p.Q i.v.c.&.b 6 7 g a a a ",
"a s 0 4 v P y.v.t.T p.h.k.l.l.l.l.l.l.l.l.l.l.l.l.l.l.l.l.l.l.l.M.M.p.Y 2.u.Z.5.m . 9 a a a g a ",
"a s i O m <.C.v.7.T p.j.l.l.l.l.l.l.l.l.M.l.l.l.l.l.l.l.l.l.l.l.l.M.f.W 5.v.Z.5.m . a g a a a a ",
"a s y o N 7.C.v.1.W p.l.l.l.l.l.l.l.l.l.l.l.l.l.l.l.l.l.l.l.M.l.M.M.g.! 1.t.Z.z.} - y 7 a a a a ",
"y s y o m 5.C.v.5.W p.l.M.l.l.l.l.l.l.l.l.l.l.l.l.l.l.l.l.l.l.l.l.l.l.g.E 2.c.A.4.A O 5 g a a a ",
"y s y o m 2.C.v.5.W f.l.l.l.l.l.l.l.l.l.l.l.l.l.l.l.l.l.l.l.l.l.l.l.M.h.R 1.c.D.z.H o 2 g a a a ",
"a s y o m 7.Z.v.5.W f.M.l.l.l.l.l.l.l.l.l.l.l.l.l.l.l.l.l.l.l.l.l.l.M.h.R 1.c.Z.6.G O 5 g a a a ",
"a s y o M 2.C.v.5.W p.M.l.l.l.l.l.l.l.l.l.l.l.l.l.l.l.l.l.M.l.l.l.l.M.h.E 1.c.S.6.H O 5 g a a a ",
"a s y 5 v } t.C.t.T ~ g.l.l.l.l.l.l.l.l.l.l.l.l.l.l.l.l.l.l.l.l.l.M.M.h.R 1.c.Z.w.G O 2 g g y a ",
"a s s 9 # b 3.v.V.7.T p.l.M.l.l.l.l.l.l.l.l.l.l.l.l.l.l.l.l.l.l.l.l.l.h.E 1.y.Z.w.H O 5 g a a a ",
"a g s 9 @ x :.b.V.5.Y p.k.M.l.l.l.l.l.l.l.l.l.l.l.l.l.l.l.l.l.l.l.M.h.p.Q 5.C.v.:.N 6 7 g a a a ",
"a a a 7 - D 0.v.c.1.~ a.l.l.l.l.M.l.l.l.l.l.l.l.l.l.l.l.l.l.l.l.l.M.g.! 2.x.C.6.Z # 7 a a a s a ",
"a a 9 6 n &.c.C.z.T p.h.l.M.l.l.l.l.l.l.l.l.l.l.l.l.l.l.l.l.l.l.l.M.f.Y 2.C.Z.2.b   9 s a a a a ",
"a s a 7 - A w.A.u.1.~ g.l.M.l.l.l.l.l.l.l.l.l.M.l.l.l.l.l.l.l.l.l.M.p.W 2.v.D.6.D & a a s y a s ",
"a s a 9 t n &.v.C.2.Y p.l.M.l.l.l.l.l.l.l.l.l.l.l.l.l.l.l.l.l.l.l.l.g.W 2.c.C.v.*.M 6 8 s a a s ",
"a a s s 6 ; J 0.C.2.T ! k.M.l.l.l.l.l.l.l.l.l.l.l.l.l.l.l.l.l.l.l.M.h.p.T 7.C.D.s.H o 2 g a y a ",
"a a a a 7 * J e.v.5.T ! l.M.l.l.l.l.l.l.l.l.l.l.l.l.l.M.l.l.l.M.l.M.j.h.I 1.c.Z.r.H O 5 g a a a ",
"a a a 7 ; ] 8.y.c.1.! h.l.l.j.l.l.l.l.l.l.l.M.l.l.l.l.k.l.l.l.k.l.l.l.h.R T c.S.6.H O 2 g a a a ",
"a a a 4 m <.S.C.6.W p.k.l.l.l.l.l.l.l.l.l.l.l.l.j.l.l.l.k.l.l.l.l.l.M.h.~ 2.c.S.0.G O 5 g a y a ",
"a a 7   b 2.Z.v.1.~ f.l.l.k.l.M.m.n.l.k.k.k.k.l.l.M.n.n.m.n.m.m.m.m.M.l.f.d.c.D.z.G o 2 g a a a ",
"a s s # ] 7.Z.V.s.d.j.N.n.n.N.b.A.A.B.m.n.n.n.N.m.B.A.A.A.A.A.v.b.b.b.m.j.m.v.v.3.S 4 7 g a a s ",
"g 9 y V ;.v.Z.V.v.B.b.b.b.b.A.Z.V.C.A.b.b.b.b.b.b.A.V.C.V.D.D.u.y.u.v.A.b.A.A.c.o.c t 9 s a a s ",
"g 9 y J 6.S.Z.Z.Z.Z.Z.Z.Z.Z.C.z.7.7.v.S.D.S.Z.Z.Z.c.7.7.t.v.x.7.*.*.t.S.Z.Z.D.u.' + y s a a a a ",
"s 9 s ) ;.9.#.$.q.r.r.w.t.r.0. .[ [ >.0.z.z.r.r.r.+.[ [ +.>.+.` / / O.r.r.y.C.A.@.> y s s a a a ",
"s s a p ( ` s l { P P P P P { k y u ) J X.| P P | ) p 7 ^ [ ^ u y 9 ^ P K *.0.c.>._ a 9 s a a a ",
"s i a a s i s i i i i i i i i s a 9 p y p i i i p s a a a g a a 0 y i i 7 l { X.` p s a s a a a ",
"s a a s 9 9 y s 9 9 9 8 0 8 9 a a a 9 9 9 0 8 9 9 9 a a 9 9 a a s s y 8 3 i j k p 9 a a s s a a ",
"a a a a s s s s a s i s i s s y a a g g s g g g s a a a a g a a s i s s g y 8 3 0 s s s a a a a ",
"y y a a s f q f y s a s a s a a a y a a a a y a a a g a a a a a s s a a a s s s s s s s a a a s ",
"a a a y s z e w g s s s s a a a a g a a a a a a a a a a a a a a a a a a a a g a y s f z f a a a ",
"a a a y s z r e f y s d s a s a a a a a a a a a a a a a a a a a s a a a a a a s y y q w q s y a "
};
