/* XPM */
static char *_631836703551[] = {
/* columns rows colors chars-per-pixel */
"43 44 5 1 ",
"  c #D3A075",
". c #E7C58A",
"X c #FFEFA9",
"o c #EEF5F6",
"O c None",
/* pixels */
"OOOOOOOOOOOOOOOOOOOOOOOOOOOOOOOOOOOOOOOOOOO",
"OOOOOOOOOOOOOOOOOOOOOOOOOOOOOOOOOOOOOOOOOOO",
"OOOOOOOOOOOOOOOOOOOOOOOOOOOOOOOOOOOOOOOOOOO",
"OOOOOOOOOOOOOOOOOooooooooooOOOOOOOOOOOOOOOO",
"OOOOOOOOOOOOOOooooooooooooooooOOOOOOOOOOOOO",
"OOOOOOOOOOOOooooooOOOOOOOOooooooOOOOOOOOOOO",
"OOOOOOOOOOOooooOOOOOOOOOOOOOOooooOOOOOOOOOO",
"OOOOOOOOOooooOOOOOOOOOOOOOOOOOOooooOOOOOOOO",
"OOOOOOOOooooOOOOOOOOOOOOOOOOOOOOooooOOOOOOO",
"OOOOOOOoooOOOOOOOOOOXXXXOOOOOOOOOOoooOOOOOO",
"OOOOOOoooOOOOOOOOOXXXXXXXXOOOOOOOOOoooOOOOO",
"OOOOOOooOOOOOOOOOXXXXXXXXXXOOOOOOOOOooOOOOO",
"OOOOOoooOOOOOOOOXXXXXXXXXXXXOOOOOOOOoooOOOO",
"OOOOoooOOOOOOOOOXXXXXXXXXXXXOOOOOOOOOoooOOO",
"OOOOooOOOOOOOOOXXXXXXXXXXXXXXOOOOOOOOOooOOO",
"OOOoooOOOOOOOOOXXXXXXXXXXXXXXOOOOOOOOOoooOO",
"OOOooOOOOOOOOOOXXXXXXXXXXXXXXOOOOOOOOOOooOO",
"OOOooOOOOOOOOOOXXXXXXXXXXXXXXOOOOOOOOOOooOO",
"OOoooOOOOOOOXXXXXXXXXXXXXXXXXXX.OOOOOOOoooO",
"OOooOOOOOXXXXXXXXXXXXXXXXXXXXXXXXX.OOOOOooO",
"OOooOOO.XXXXXXXXXXXXXXXXXXXXXXXXXXXX.OOOooO",
"OOooOO.XXXXXXXXXXXXXXXXXXXXXXXXXXXXXX.OOooO",
"OOooOO.XXXXXXXXXXXXXXXXXXXXXXXXXXXXXX.OOooO",
"OOooO..XXXXXXXXXXXXXXXXXXXXXXXXXXXXXX..OooO",
"OOooO..XXXXXXXXXXXXXXXXXXXXXXXXXXXXXX..OooO",
"OOooO..XXXXXXXXXXXXXXXXXXXXXXXXXXXXXX..OooO",
"OOooO...XXXXXXXXXXXXXXXXXXXXXXXXXXXX...OooO",
"OOoooO....XXXXXXXXXXXXXXXXXXXXXXXX....OoooO",
"OOOooO .............................. OooOO",
"OOOooOO ............................ OOooOO",
"OOOoooOOO ........................ OOOoooOO",
"OOOOooOOOOOO  ...      . . ...  OOOOOOooOOO",
"OOOOoooOOOOOOOOOOOOOOOOOOOOOOOOOOOOOOoooOOO",
"OOOOOoooOOOOOOOOOOOOOOOOOOOOOOOOOOOOoooOOOO",
"OOOOOOooOOOOOOOOOOOOOOOOOOOOOOOOOOOOooOOOOO",
"OOOOOOoooOOOOOOOOOOOOOOOOOOOOOOOOOOoooOOOOO",
"OOOOOOOoooOOOOOOOOOOOOOOOOOOOOOOOOoooOOOOOO",
"OOOOOOOOooooOOOOOOOOOOOOOOOOOOOOooooOOOOOOO",
"OOOOOOOOOooooOOOOOOOOOOOOOOOOOOooooOOOOOOOO",
"OOOOOOOOOOOooooOOOOOOOOOOOOOOooooOOOOOOOOOO",
"OOOOOOOOOOOOooooooOOOOOOOOooooooOOOOOOOOOOO",
"OOOOOOOOOOOOOOooooooooooooooooOOOOOOOOOOOOO",
"OOOOOOOOOOOOOOOOOooooooooooOOOOOOOOOOOOOOOO",
"OOOOOOOOOOOOOOOOOOOOOOOOOOOOOOOOOOOOOOOOOOO"
};
