/* XPM */
static char *_89bb995d06b4e65fa9f0974e47617edBQmsdt3NIjdDoYFf[] = {
/* columns rows colors chars-per-pixel */
"48 48 78 1 ",
"  c #4B9462",
". c #4C9563",
"X c #468C5C",
"o c #438759",
"O c #4A9261",
"+ c #4B9361",
"@ c #48905F",
"# c #418456",
"$ c #3E7D52",
"% c #468B5C",
"& c #488F5F",
"* c #3E7E53",
"= c #428457",
"- c #438658",
"; c #4B9562",
": c #499160",
"> c #418356",
", c #4A9362",
"< c #4C9562",
"1 c #529860",
"2 c #4F9761",
"3 c #6DA958",
"4 c #61A15B",
"5 c #4A9462",
"6 c #499363",
"7 c #54995F",
"8 c #75AE55",
"9 c #73AD56",
"0 c #5FA05C",
"q c #4F9661",
"w c #53995F",
"e c #74AD55",
"r c #80B452",
"t c #539960",
"y c #489263",
"u c #66A55A",
"i c #76AE55",
"p c #74AE56",
"a c #74AC54",
"s c #4A8B56",
"d c #4E9059",
"f c #69A759",
"g c #7CB354",
"h c #67A55A",
"j c #65A45A",
"k c #4E9661",
"l c #5F9F5A",
"z c #69A151",
"x c #4C864E",
"c c #609850",
"v c #7BB153",
"b c #73AA52",
"n c #5D9D5A",
"m c #74AD56",
"M c #468857",
"N c #7AB053",
"B c #4E884E",
"V c #64A45A",
"C c #448B5D",
"Z c #448555",
"A c #579150",
"S c #5D954E",
"D c #559050",
"F c #64A35A",
"G c #49905F",
"H c #3B784E",
"J c #4B9362",
"K c #478E5E",
"L c #499362",
"P c #589C5E",
"I c #60A15C",
"U c #6FAA57",
"Y c #599D5E",
"T c #63A35B",
"R c #599C5E",
"E c #6DA957",
"W c #569B5F",
"Q c white",
/* pixels */
"                                                ",
"                                 .XoO.          ",
"                                +@#$%O          ",
"                               .&*=%$-          ",
"                               ;:->=#X          ",
"                                  -*@.          ",
"                                  :&+           ",
"                           ,,     ;.            ",
"                          <12                   ",
"                         ,1345                  ",
"          ,,             67890q5 ,,             ",
"          21<            6weret6<12             ",
"          431,           6werety134             ",
"          ui7y,          ,q0pasdfgh             ",
"          je7k1<           5lzxcvbn             ",
"          jmw031,           MxzNbBM             ",
"          u87Vi76           CZASDZC             ",
"          431Fe76           .G*H*G.             ",
"          21<je76            J&K&J              ",
"          ,L PI2,             ...               ",
"                                                ",
"                                                ",
"6P4k6                                           ",
"wFUYk                                           ",
"eTRU4                                           ",
"jVFjP                                           ",
"5IE1L                                           ",
" 21<                                            ",
" ,,                                             ",
"                                                ",
"                                                ",
"               .X-O.                            ",
"              +@#$%O                            ",
"             .&*=%$-                            ",
"             ;:->=#X                   ,,       ",
"                -*@.                  <12       ",
"                :&+                  L134       ",
"                ;.                ,2IW78u       ",
"                                  67eFwej       ",
"                                  67eFwej       ",
"                                  67ijq0P       ",
"                                  ,134 5        ",
"                                   <12          ",
"                   6k4PL            ,,          ",
"                   kYUj1<                       ",
"                   4URFE1,                      ",
"                   PFTVI2,                      ",
"                   6wej5                        "
};
