/* XPM */
static char *_152_872bc798b9a3a3feabf609a6db3b1ae827adcc484c6a473a9f7e7f895b1936d2[] = {
/* columns rows colors chars-per-pixel */
"38 47 7 1 ",
"  c black",
". c #A24300",
"X c #CA9A00",
"o c #125F89",
"O c #4D9ACA",
"+ c #F8F8F8",
"@ c None",
/* pixels */
"@@@@@@@@@@@@@@@@@@@@@@@@@@@@@@@@@@@@@@",
"@@@@@@@@@@@@@@@@@@@@@@@@@@@@@@@@@@@@@@",
"@@@@@@@@@@@@@@@@@@@@@@@@@@@@@@@@@@@@@@",
"@@@@@@@@@@@@@@@@+++@@@@@@@@@@@@@@@@@@@",
"@@@@@@@@@@@@@@++ooo++@@@@@@@@@@@@@@@@@",
"@@@@@@@@@@@@@+      o+@@@@@@@@@@@@@@@@",
"@@@@@@@@@@@@+     oooo+@@@@@@@@@@@@@@@",
"@@@@@@@@@@@@+    ooooo+@@@@@@@@@@@@@@@",
"@@@@@@@@+++++OOOO+ooooo+@@@@@@@@@@@@@@",
"@@@@@@@@+        +++++++@@@@@@@@@@@@@@",
"@@@@@@@@@+oOOOOOo   o+++@@@@@@@@@@@@@@",
"@@@@@@@@@@O+OOOOOOOOo  o+@@@@@@@@@@@@@",
"@@@@@@@@@O@+OoOOO OOOOOo +@@@@@@@@@@@@",
"@@@@@@@@@@@@+ooOo+ OOoO+oo+@@@@@@@@@@@",
"@@@@@@+++@@@+oooo ooOo+o++@@@@@@@@@@@@",
"@@@@@++oo+@@++ooooooo+++@@@@@@@@@@@@@@",
"@@@@+oooo+@@@+o++ooo+@@@@@@@@@@@@@@@@@",
"@@@+oooOo+@@@@+ooooOo++++@@@@@@@@@@@@@",
"@@@+o+oo+o+@@@@+++Oo+++oo+@@@@@@@@@@@@",
"@@@+oo++oo+@@@++++o+O+oooo+@@@@@@@@@@@",
"@@@@+OO+++@@@@+o+++O+ooooo+@@@@@@@@@@@",
"@@@@@++OO+@@@+oo+OOO+Ooooo+@@@@@@@@@@@",
"@@@@@@+OOO+@+ooo++ OO+Ooooo+@@@@@@@@@@",
"@@@@@@@+OOO+ooO++++OOO+++ooo+@@@@@@@@@",
"@@@@@@@@+OOOOO+@++++OOO+++ooo+@@@@@@@@",
"@@@@@@@@@+OO++@@@++ OOO++++oo+@@@@@@@@",
"@@@@@@@@@@++@@@@@++++OO++@+++@@@@@@@@@",
"@@@@@@@@@@@@@@@@+++OOOOO++@@@@@@@@@@@@",
"@@@@@@@@@@@@@@@++++ +OOO++@@@@@@@@@@@@",
"@@@@@@@@@@@@@++++++++OOO++@@@@@@@@@@@@",
"@@@@@@@@@@+++XX++++X++OOO++@@@@@@@@@@@",
"@@@@@@@@@++ooXXXXXXXX++++XX+@@@@@@@@@@",
"@@@@@@@@+oo+ooXXXXXXX....   +@@@@@@@@@",
"@@@@@@@@+ooo+oXXX++++XX.  ++++@@@@@@@@",
"@@@@@@@@@+oo+oo++@@@@++Xo+ooo+@@@@@@@@",
"@@@@@@@@@@+oo++@@@@@@@@+o+ooo+@@@@@@@@",
"@@@@@@@@@@@+o+@@@@@@@@@@+++oo+@@@@@@@@",
"@@@@@@@@@@@+oo+@@@@@@@@@@@++o+@@@@@@@@",
"@@@@@@@@@@@@+o+@@@@@@@@@@@@+oo+@@@@@@@",
"@@@@@@@@@@@@+oO+@@@@@@@@@@@+oo+@@@@@@@",
"@@@@@@@@@@@+ooo+@@@@@@@@@@@+ooo+@@@@@@",
"@@@@@@@@@++ooooO+@@@@@@@@@@+oooo+@@@@@",
"@@@@@@@++o+ooooO+@@@@@@@@@++++o+++@@@@",
"@@@@@@+oooO+OOOO+@@@@@@@@@++oo++oo+@@@",
"@@@@@@+++++++++++@@@@@@@@@+oooo+ooo+@@",
"@@@@@@@@@@@@@@@@@@@@@@@@@@@+++++++++@@",
"@@@@@@@@@@@@@@@@@@@@@@@@@@@@@@@@@@@@@@"
};
