/* XPM */
static char *b4eb956a73214259870a096db6f674451xncgXUYp4XBv6Q2[] = {
/* columns rows colors chars-per-pixel */
"48 48 118 2 ",
"   c #51290F",
".  c #4F2F14",
"X  c #522D13",
"o  c #532F18",
"O  c #4E3C1B",
"+  c #533015",
"@  c #55331C",
"#  c #58371E",
"$  c #513C1C",
"%  c #553520",
"&  c #583721",
"*  c #533D22",
"=  c #593B25",
"-  c #573C2A",
";  c #5A3E29",
":  c #4F401F",
">  c #5A441F",
",  c #4E4725",
"<  c #4B4929",
"1  c #534224",
"2  c #564728",
"3  c #5C422D",
"4  c #59492C",
"5  c #50502D",
"6  c #5A4534",
"7  c #524F33",
"8  c #5A4738",
"9  c #5D4B3B",
"0  c #4D5732",
"q  c #4C5B33",
"w  c #565335",
"e  c #5D5235",
"r  c #5B553A",
"t  c #5B5A3D",
"y  c #614D27",
"u  c #604633",
"i  c #614936",
"p  c #624D3B",
"a  c #66513E",
"s  c #61583F",
"d  c #59642F",
"f  c #4C653B",
"g  c #4C683E",
"h  c #50683A",
"j  c #62692C",
"k  c #614F41",
"l  c #635344",
"z  c #6A5645",
"x  c #655E45",
"c  c #6D5946",
"v  c #645649",
"b  c #66594C",
"n  c #6B5B4D",
"m  c #645C51",
"M  c #695E52",
"N  c #476E43",
"B  c #4C6C42",
"V  c #5E6245",
"C  c #5C6A4A",
"Z  c #4D7147",
"A  c #407149",
"S  c #4F7349",
"D  c #46784E",
"F  c #4D7B4E",
"G  c #51754C",
"H  c #52784F",
"J  c #457D50",
"K  c #4D7F52",
"L  c #547750",
"P  c #507F55",
"I  c #686047",
"U  c #626449",
"Y  c #69634C",
"T  c #6C6155",
"R  c #686E52",
"E  c #6D655A",
"W  c #736253",
"Q  c #72675B",
"!  c #746A5E",
"~  c #7C6C5E",
"^  c #647356",
"/  c #697056",
"(  c #756D62",
")  c #7E6E61",
"_  c #7B7165",
"`  c #7C7569",
"'  c #7E786D",
"]  c #7F7B70",
"[  c #817365",
"{  c #82776A",
"}  c #857A6D",
"|  c #837D73",
" . c #887F73",
".. c #478557",
"X. c #4B8354",
"o. c #4F8659",
"O. c #448C5C",
"+. c #4C8D5D",
"@. c #51895C",
"#. c #4B905F",
"$. c #53995F",
"%. c #599C5E",
"&. c #5FA15C",
"*. c #63A35B",
"=. c #6EAA58",
"-. c #74AE55",
";. c #4B9462",
":. c #539960",
">. c #868175",
",. c #898475",
"<. c #868378",
"1. c #8A857B",
"2. c #8C887F",
"3. c #8E8B82",
"4. c #918E84",
"5. c #939087",
"6. c #95938A",
"7. c #98968D",
/* pixels */
";.;.;.;.;.;.;.;.;.;.;.;.;.;.;.;.;.;.;.;.;.;.;.;.;.;.;.;.;.;.;.;.;.;.;.;.;.;.;.;.;.;.;.;.;.;.;.;.",
";.;.;.;.;.;.;.;.;.;.;.;.;.;.;.;.;.;.;.;.;.;.;.;.;.;.;.;.;.;.;.;.;.;.O.O.;.;.;.;.;.;.;.;.;.;.;.;.",
";.;.;.;.;.;.;.;.;.;.+.+.@.@.@.@.@.@.+.@.@.@.@.@.+.@.@.@.@.@.+.o.o.o.D A ..;.;.;.;.;.;.;.;.;.#.;.",
";.;.;.;.;.;.;.;.;.+.L V x x I I Y Y Y T Y Y Y Y I Y Y Y Y x x r r e 7 w q J ;.;.;.;.;.;.;.;.;.;.",
";.;.;.;.;.;.;.;.+.P C c W W Q ~ _ _ _ _ [ [ ) ) ) ( ) ) [ [ c z l p p 9 < A ;.;.;.;.;.;.;.;.;.;.",
";.;.;.;.;.;.;.;.+.G U W ` ] ` | ,.2.3.3.1.1.2.1.1.1.3.1.2.1.( M T T T v 1 g ;.;.;.;.;.;.;.;.;.;.",
";.;.;.;.;.;.;.;.+.G U W ` | ` ]  .1.3.4.4.2.4.2.3.3.1.1.4.1.( M T n T v * f ;.;.;.;.;.#.;.;.;.;.",
";.;.;.;.;.;.;.;.+.G U W ` ` | ` | 1.5.3.3.4.3.4.3.3.3.3.3.1.( M m T m v $ f ;.;.;.;.;.;.;.;.;.;.",
";.;.;.;.;.;.;.;.+.G U W ` ' ` ' ,.2.5.5.2.5.2.2.3.4.3.4.4.1.( E T M M v O g ;.;.;.;.;.;.;.;.;.;.",
";.;.;.;.;.;.;.;.+.G U W ` ' ] '  .2.2.2.5.2.5.2.3.3.4.4.4.3.( E E T T v O g ;.;.;.#.;.;.;.;.;.;.",
";.;.;.#.;.;.;.;.+.G U W ` ' ' ` >.2.5.6.5.5.2.7.5.5.6.4.5.3.` ( Q E M v , f ;.;.;.;.;.;.;.;.;.;.",
";.;.;.;.;.;.;.;.+.G V W _ ' ' | >.4.5.7.7.7.7.7.6.6.6.6.6.3.| ( Q T m v * f ;.;.;.;.;.;.;.;.#.;.",
";.;.;.;.#.;.;.;.+.G V M _ { | 1.4.4.4.4.6.5.5.7.5.4.5.4.3.4.3.| ( M m l * f ;.;.;.;.;.;.;.;.;.;.",
";.;.;.;.;.;.;.;.+.G x c ( | 3.3.4.4.4.4.2.5.2.2.4.4.4.4.4.3.4.3. .Q M k * N ;.;.;.;.;.;.;.;.;.;.",
";.;.;.;.;.;.;.;.+.G V M ( 1.6.5.4.4.4.4.5.2.5.2.4.5.5.4.4.4.3.5.4.` Q l 1 f ;.;.;.;.;.;.;.;.;.;.",
";.;.;.;.;.;.;.;.+.G U W  .4.5.4.4.4.4.4.5.2.5.5.5.4.4.4.4.4.4.5.4.4.| T 1 f ;.;.#.;.;.;.;.;.;.;.",
";.;.;.;.;.;.;.;.+.G U ) 4.7.6.6.6.6.6.6.6.6.6.6.6.6.6.6.6.4.6.4.6.7.5.` 4 f ;.;.;.;.;.;.#.;.;.;.",
";.;.;.;.;.;.;.;.+.B U ) 1.3.3.3.2.4.2.4.3.3.3.3.3.3.3.3.3.3.3.3.3.3.5. .4 f ;.;.;.;.;.;.;.;.;.;.",
";.;.;.;.;.;.;.;.+.B s n Q E E E E E E E E E E E E E E E E m E E E M ( ( 1 f ;.;.;.;.;.;.;.;.;.;.",
";.;.;.;.;.;.;.;.+.B t l M M m b m m m b m m m m m m m m m m m m m v ( Q 1 f ;.;.;.;.;.;.;.;.;.;.",
";.;.;.;.;.;.;.;.o.N e i l z l l l l l l l l v l l k k k l l l k l k n n * f ;.;.;.;.;.;.;.;.;.;.",
";.;.;.;.;.;.;.;.+.N 2 o @ # @ @ @ @ @ @ @ @ o o % % % % O o % o o o @ # O g ;.;.;.;.;.;.;.;.;.;.",
";.:.*.;.;.;.;.;.+.K B q q :   # @ + + @ % % % % % % % % o . o . . < 0 q f F ;.;.;.;.;.;.;.;.;.;.",
":.*.-.:.;.;.;.;.;.;.;.;.;.0   6 6 & * - 6 6 - 8 - 6 8 - % . - - * B +.;.;.;.;.;.;.;.;.;.;.;.;.;.",
"-.*.%.=.*.;.;.;.;.;.;.;.;.q X p p = = 6 8 8 8 8 8 8 8 8 % . 8 ; 1 Z +.;.:.;.;.;.;.;.;.;.;.;.;.;.",
"=.*.*.*.%.;.;.;.;.;.o.S f : X z b 9 = @ @ @ @ % o % o % & 6 l 9 * 5 q B +.;.;.;.;.;.;.;.;.;.;.;.",
";.*.=.:.;.;.;.;.#.#.G t 4 + + c T b 3 @ X X X   .       ; v b p = @ @ 2 F #.;.;.;.;.;.;.;.;.;.;.",
";.;.:.;.;.;.;.;.#.X.^ _ { a = a b b k k 9 i 9 9 8 8 8 8 k k k 6 = u i e 2 B ;.;.;.;.;.;.;.;.;.;.",
";.;.#.;.;.;.;.;.+.L / { 1.~ i i i p 9 r k 9 9 9 9 8 9 9 8 8 - 6 u a s i $ f ;.;.;.;.;.;.;.;.;.;.",
";.;.;.;.;.;.;.;.+.H / _ 1.` M i 3 3 8 9 6 6 8 8 8 8 8 8 8 ; & ; a l z a $ f ;.;.;.;.;.;.;.;.;.;.",
";.;.;.;.;.;.;.;.+.H R [ <.` M l u u z M M M n M v v l l v k & 6 l l v k * f ;.;.;.;.;.;.;.;.;.;.",
";.;.;.;.;.;.;.;.+.H R [ 1.` n l u u n E M Q M M M m b b M z & u b M E M 1 f ;.;.;.;.;.;.;.;.;.;.",
";.;.;.;.;.;.;.;.#.H R [ 1.' E v i u n E M T T M M M b m M z = i W ( ` ( 4 g ;.;.;.;.;.;.;.;.;.;.",
";.;.;.;.;.;.;.;.#.H R [ <. .` n i u n M T M T T M M M M M v = k ( | 1.} e g ;.;.;.;.;.;.;.;.;.;.",
";.;.;.;.;.;.;.;.#.G R [ 1.1.| ! a u l n v v v z b z b b l k ; z `  .3.>.e B ;.;.;.;.;.;.;.;.;.;.",
";.;.#.;.;.;.;.;.#.S R [ 1.3.<.{ W p l l l l l l l l l l z z a Q ] >.3.>.e B ;.:.:.;.;.;.;.;.;.;.",
";.;.;.;.;.;.;.;.+.G R [ 2.4.1.<.` ~ n c c c c c c c c z c W ` | <.<.3.>.e g $.=.&.;.;.;.;.;.;.;.",
";.;.;.;.;.#.;.;.+.G R { 4.6.6.5.3.1. .{ } } } | } } { { }  .3.6.3.3.6.<.e g $.-.*.;.;.;.;.;.;.;.",
";.;.;.;.;.;.;.;.+.Z Y ) 3.4.4.4.3.4.4.3.4.4.3.3.4.4.3.4.3.3.3.3.3.3.3. .y h %.-.*.#.;.;.;.;.;.;.",
";.;.;.;.;.;.;.;.+.B r z E Q ( Q ! E ! Q Q E E E E E E E Q E M E E E ( E > h $.-.*.;.;.;.;.;.;.;.",
";.;.;.;.;.;.;.;.+.N w l M M M M T m m m T m b m m m m m m m m m m b E T > h $.%.%.;.;.;.;.;.;.;.",
";.;.;.;.;.;.;.;.+.B w i l z v l l l l l l l l k k k k k k l l l l l b z > f ;.;.:.#.;.;.;.;.;.;.",
";.;.;.;.;.;.;.;.+.B , X X X X X + + + + + X X X . . . . . . o X . . + + $ g ;.;.;.;.;.;.;.;.;.;.",
";.;.;.;.;.;.;.;.+.K N 0 q q q q q q q f f j d q q q q q q q q q q q 0 q f X.;.;.;.;.;.;.;.;.;.;.",
";.;.;.;.;.;.;.;.;.;.;.;.;.;.;.;.;.;.;.;.:.=.*.:.;.;.;.;.;.;.;.;.;.;.;.;.;.;.;.;.;.;.;.;.;.;.;.;.",
";.;.;.;.;.;.;.;.;.;.;.;.;.;.;.;.;.;.;.*.=.&.*.=.;.;.;.;.;.;.;.;.;.;.;.;.;.;.;.;.;.;.;.;.;.;.;.;.",
";.;.;.;.;.;.;.;.;.;.;.;.;.;.;.;.;.;.;.%.*.*.*.&.;.;.;.;.;.;.;.;.;.;.;.;.;.;.;.;.;.;.;.#.;.;.;.;.",
";.;.;.;.;.;.;.;.;.;.;.;.;.;.;.;.;.;.;.;.:.-.*.;.;.;.;.;.;.;.;.;.;.;.;.;.;.;.;.;.;.;.;.;.;.;.;.;."
};
